<svg id="Capa_1" data-name="Capa 1" xmlns="http://www.w3.org/2000/svg" viewBox="0 0 155.3 126.21"><defs><style>.cls-1{fill:#f9faf6;}.cls-2{fill:#1b303f;}.cls-3{fill:#96a2a9;}.cls-4{fill:#f3f5ee;}.cls-5{fill:#658b94;}.cls-6{fill:#c0a8ae;}.cls-7{fill:#95bbc1;}.cls-8{fill:#a1c8cd;}.cls-9{fill:#98373b;}.cls-10{fill:#d2e2e1;}.cls-11{fill:#bbdade;}.cls-12{fill:#b2d1d4;}.cls-13{fill:#e6baba;}.cls-14{fill:#87a7ae;}.cls-15{fill:#8ebbc1;}.cls-16{fill:#b6ccd0;}.cls-17{fill:#af4950;}.cls-18{fill:#92484e;}.cls-19{fill:#c8e2e5;}.cls-20{fill:#b06e76;}.cls-21{fill:#557476;}.cls-22{fill:#c9b9bd;}.cls-23{fill:#d5cdd1;}.cls-24{fill:#9e9097;}.cls-25{fill:#7b98a1;}.cls-26{fill:#8fbbc1;}.cls-27{fill:#95bcc0;}.cls-28{fill:#bc1718;}.cls-29{fill:#e8bdbd;}.cls-30{fill:#903e4a;}.cls-31{fill:#ae6169;}.cls-32{fill:#977982;}.cls-33{fill:#d6eced;}.cls-34{fill:#a9a6ad;}.cls-35{fill:#6d848e;}.cls-36{fill:#ce1314;}.cls-37{fill:#70747e;}.cls-38{fill:#b88892;}.cls-39{fill:#bbd4d2;}.cls-40{fill:#b02427;}.cls-41{fill:#b92e32;}.cls-42{fill:#f1d9d9;}.cls-43{fill:#c8444d;}.cls-44{fill:#c5424b;}.cls-45{fill:#df8b8f;}.cls-46{fill:#040404;}.cls-47{fill:#cee2e3;}.cls-48{fill:#af5666;}.cls-49{fill:#c0dde0;}.cls-50{fill:#9f5b65;}.cls-51{fill:#d1e1e0;}.cls-52{fill:#e0e0de;}.cls-53{fill:#e5e5e0;}.cls-54{fill:#e0e1dd;}.cls-55{fill:#f1dabb;}.cls-56{fill:#e6e7e9;}.cls-57{fill:#b49098;}.cls-58{fill:#f3f6f2;}.cls-59{fill:#010001;}.cls-60{fill:#d1b5bc;}.cls-61{fill:#d8c4a9;}.cls-62{fill:#fdfdfd;}.cls-63{fill:#668b95;}.cls-64{fill:#dde9e8;}.cls-65{fill:#d7e6e5;}.cls-66{fill:#67252a;}.cls-67{fill:#d44b52;}.cls-68{fill:#c4d8d7;}.cls-69{fill:#e0e1da;}.cls-70{fill:#e0adad;}.cls-71{fill:#80a8ad;}.cls-72{fill:#dbabab;}.cls-73{fill:#85b2b9;}.cls-74{fill:#ac3136;}.cls-75{fill:#f2f6f6;}.cls-76{fill:#f0f4f4;}.cls-77{fill:#d65a60;}.cls-78{fill:#df9397;}.cls-79{fill:#f2f3ed;}.cls-80{fill:#d5acac;}.cls-81{fill:#de9c9c;}.cls-82{fill:#e0a9a9;}.cls-83{fill:#d97c82;}.cls-84{fill:#db858a;}.cls-85{fill:#d64650;}.cls-86{fill:#8f5760;}.cls-87{fill:#937179;}.cls-88{fill:#925f69;}.cls-89{fill:#eff0eb;}.cls-90{fill:#838891;}.cls-91{fill:#f2f7f6;}.cls-92{fill:#f8fbfb;}.cls-93{fill:#f4f8f8;}.cls-94{fill:#fbf9f8;}.cls-95{fill:#eecfcf;}.cls-96{fill:#ecd0d0;}.cls-97{fill:#d87087;}.cls-98{fill:#c02124;}.cls-99{fill:#89969d;}.cls-100{fill:#792e36;}.cls-101{fill:#bdd7db;}.cls-102{fill:#561518;}.cls-103{fill:#f3f8f8;}.cls-104{fill:#eacccd;}.cls-105{fill:#642126;}.cls-106{fill:#e7c0c0;}.cls-107{fill:#ba6169;}.cls-108{fill:#c5848e;}.cls-109{fill:#d34850;}.cls-110{fill:#da7076;}.cls-111{fill:#030202;}.cls-112{fill:#9ba8af;}.cls-113{fill:#f9f3f2;}.cls-114{fill:#b05465;}.cls-115{fill:#f8f0f0;}.cls-116{fill:#dfa09f;}.cls-117{fill:#c91416;}.cls-118{fill:#7b7e87;}.cls-119{fill:#eef1ec;}.cls-120{fill:#c3d8d6;}.cls-121{fill:#a8b3b7;}.cls-122{fill:#2a2a2a;}.cls-123{fill:#4f6e79;}.cls-124{fill:#53747f;}.cls-125{fill:#81aeb5;}.cls-126{fill:#eacea8;}.cls-127{fill:#82b0b6;}.cls-128{fill:#6a929b;}.cls-129{fill:#743e41;}.cls-130{fill:#698b94;}.cls-131{fill:#d9dad2;}.cls-132{fill:#c22f37;}.cls-133{fill:#d49393;}.cls-134{fill:#c6373e;}.cls-135{fill:#ce9a9a;}.cls-136{fill:#f0d9bb;}.cls-137{fill:#ebceab;}.cls-138{fill:#f1f3eb;}.cls-139{fill:#e3e3e1;}.cls-140{fill:#e6e6e6;}.cls-141{fill:#dac7c7;}.cls-142{fill:#e4e3e3;}.cls-143{fill:#fbf6f6;}.cls-144{fill:#fbf4f5;}.cls-145{fill:#faf6f6;}.cls-146{fill:#fbf7f6;}.cls-147{fill:#62313c;}.cls-148{fill:#6b4d58;}.cls-149{fill:#678c95;}.cls-150{fill:#edd7b9;}.cls-151{fill:#be242c;}.cls-152{fill:#bf262e;}</style></defs><path class="cls-1" d="M542.26,307.5c1.52.92,3.28.63,4.91,1,1,.22,2,.27,3,.47a3.66,3.66,0,0,0,2.83-.19c.91.08,1.88-.6,2.72.23-.77,1.45-.75,1.42.81,2.48s2.91,2.82,4.62,3.92c.17.11.27.3.57.37.2-2.46.87-4.65,3.07-6,2.66,0,5.29.43,7.92.7a24.66,24.66,0,0,1,3.22.24c1.65.37,3.35.34,5,.55s3.6.33,5.38.63a60.06,60.06,0,0,1,6.57.6,20.14,20.14,0,0,1,3.47.38c1,.27,1.19.71.44,1.34-2.7,2.27-3.79,5.39-4.72,8.61-.3,1.77-.93,3.45-1.3,5.2-.23.86-.43,1.74-.72,2.6-.14.62-.32,1.23-.49,1.85-.44,2-.92,3.93-1.47,5.88-.13.5-.22,1-.77,1.28-.34,0-.49-.26-.66-.5-1.08-1.48-2.37-2.54-4.37-2.14a1.86,1.86,0,0,1-1.39-.45,1.81,1.81,0,0,0-2.4,0,2,2,0,0,0-.46,2.59,2.82,2.82,0,0,1,.35,1.06c-.07.65-.6.74-1.07.87-1.52.44-3,.91-4.57,1.28-2.32.55-3.74,2.2-5,4-.35.51-.48,1.18-1.21,1.32-.67-.11-.91-.67-1.18-1.17a17.31,17.31,0,0,1-1.9-4.7,3.58,3.58,0,0,0-.44-1.12,5.22,5.22,0,0,0,.26,4.82c.17,1.26.6,2.46.86,3.69.12.53.24,1-.22,1.48-.78.26-1.44-.21-2.14-.38a22.76,22.76,0,0,0-6.89-.25,2.12,2.12,0,0,1-1.09,0,1.4,1.4,0,0,1-.56-1.05c-.93-4.16-1.76-8.35-3.89-12.13a1,1,0,0,1-.1-.6,1.27,1.27,0,0,1,.37-.68,13.72,13.72,0,0,0,2.67-4,3.08,3.08,0,0,0,.29-1.43c.08-.95.66-1.81.47-2.8a8.88,8.88,0,0,1,.2-1.85,5.48,5.48,0,0,0-2.09-5.06,12.37,12.37,0,0,0-4.6-2.4,16.26,16.26,0,0,1-2.36-.77c-.35-.27-.62-.65-1.17-.6a3.33,3.33,0,0,1-2.54-1.09c-1.38-1.19-2.67-2.5-4.07-3.67-1.19-1-1.2-1.12-.47-2.53.18-.34.1-.75.31-1.08.85-1.12,2.06-1.18,3.31-1.15C540.52,307.12,541.36,307.51,542.26,307.5Z" transform="translate(-465.46 -293.76)"/><path class="cls-2" d="M576.25,417.39a210.61,210.61,0,0,1-3-21.21,5.12,5.12,0,0,0-.2-.84,3.69,3.69,0,0,1-.55-2.12c.06-1.74-.09-3.47.09-5.2a23.78,23.78,0,0,1,1.57-7.45c.87-2.15,1.46-4.42,2.75-6.39.56-.64,1.29-.47,2-.37a58.91,58.91,0,0,0,8.19.15,20.94,20.94,0,0,0,7.07-2.11c.38-.21.84-.42,1.26,0a11.51,11.51,0,0,1-.11,4.22,3.46,3.46,0,0,0-.09.72,29.56,29.56,0,0,1-.87,6.49c-.26,2.75-1.27,5.39-1.12,8.19a5.67,5.67,0,0,1-.1,1.36c-.49,1.17-.09,2.38-.16,3.57-.17,2.85-.47,5.69-.59,8.54a2.73,2.73,0,0,1,0,.41,4.1,4.1,0,0,0-.21,1.55v.39a1.85,1.85,0,0,1-.11.77c-.2.39-.06.92-.48,1.22l-.75,6.66c-.67,1.34-1.74,1.48-2.63.34-.6-3.09-1.19-6.18-1.79-9.26a2.66,2.66,0,0,1-.63-1.33,99.14,99.14,0,0,1-1.7-18.59,3.78,3.78,0,0,1,.09-.64,6.15,6.15,0,0,1-.36.63c-2.18,2.59-2.42,5.72-2.55,8.9-.08,2-.36,4-.54,6.08a1.49,1.49,0,0,1-.59,1.18q-.77,7-1.15,14C578.06,418.39,577.16,418.43,576.25,417.39Z" transform="translate(-465.46 -293.76)"/><path class="cls-3" d="M576,311c-2.71.18-5.36-.45-8-.59-1.16-.06-2.31-.23-3.46-.35a2.52,2.52,0,0,1-1.67.39c-2-.33-4-.52-6-.73a1.23,1.23,0,0,1-1-.47c-.86-.5-1.9,0-2.76-.47a22.06,22.06,0,0,0,6-4c.57-.62,1.3-.44,2-.35s1.24.09,1.85.22c1.84.3,3.7.48,5.56.65a1.42,1.42,0,0,0,1.47-.94c.25-.53.49-1.06.7-1.6.38-1.09.91-2.12,1.27-3.22,0-.11.07-.22.1-.33.26-.55-.17-1.12.06-1.68a.72.72,0,0,1,.49-.47,37.9,37.9,0,0,1,13.61-2.1,36.4,36.4,0,0,1,20.14,7.19,42.69,42.69,0,0,1,9.52,9.12c-.48.38-.49.39-1,.17a16.09,16.09,0,0,0-1.91-.81c-1.81-.56-3.49-1.48-5.33-2a32.5,32.5,0,0,0-3.38-.79c-9-1.87-17.72-1.54-26.1,2.57A4.19,4.19,0,0,1,576,311Z" transform="translate(-465.46 -293.76)"/><path class="cls-4" d="M574.55,380.51a42.73,42.73,0,0,0-1.61,7.15c-.92,1.15-2.18,1-3.43.94a57.32,57.32,0,0,1-8.46-1.13c-4.39-.15-8.76-.42-13.12-.91-2.59-.3-5.16-.74-7.74-1.09-1.62-.17-3.27.16-4.89-.2a3.71,3.71,0,0,1-1.18-.33c-.46-.81.24-1,.72-1.22a9.55,9.55,0,0,1,2.3-.56c1.76-.36,3.36-1.23,5.11-1.62a5.61,5.61,0,0,1,2.58-.1c3.35.76,8.35-1.77,8.73-5.23-.6.15-1,.63-1.53.78-.78.22-1.13-.1-.94-.88a4.13,4.13,0,0,1,.95-1.6,5.72,5.72,0,0,0,1.15-2.47,2.25,2.25,0,0,0-.32-1.89c-.82-1.21-.39-5.18.59-6.24.61-.09.88.36,1.19.75a18.64,18.64,0,0,1,4.23,10.17,10,10,0,0,1-.51,3.31c-.25,1.33.06,1.8,1.4,1.87,2.57.13,5.12.48,7.69.68,1.2.1,1.66-.18,2-1.35.27-.87.5-1.76.72-2.65.32-1.27.12-1.6-1.17-1.74a60.25,60.25,0,0,0-9.29-.7,1.85,1.85,0,0,1-.62-.07c-.37-.16-.38-.52-.45-.84-1.55-7.23-5.64-12.2-12.84-14.4-.82-1-.75-1.49.33-2.41,6-1.24,13.28,2.15,15.69,6.89.38.89-.1,1.7-.24,2.55-.2,1.16-.05,1.39,1.1,1.58,2.13.34,4.28.48,6.42.76a6.45,6.45,0,0,1,2.41.53,2.64,2.64,0,0,1,.75,1.79c.46,3.19,1.63,6.22,2.08,9.42A4.37,4.37,0,0,0,574.55,380.51Z" transform="translate(-465.46 -293.76)"/><path class="cls-5" d="M483.79,381.5c1-.08,2,.18,2.79-.74,2.77-.79,5.64-1.12,8.42-1.86,1.5-.3,2.95-.74,4.42-1.15.61-.17.8-.41.26-.89a13.59,13.59,0,0,1-4.27-8.31,2.41,2.41,0,0,1,.31-2.13,2.67,2.67,0,0,1,1.7.06,15.46,15.46,0,0,0,6.39-.15,5.69,5.69,0,0,1,1.59-.2,1.83,1.83,0,0,1,1.49,1.32,29.7,29.7,0,0,1,1.54,4.58,16.94,16.94,0,0,1,.5,8,6.91,6.91,0,0,1-4.6,4.69,20.11,20.11,0,0,1-7.2,1.21c-1.88,0-3.81.33-5.62-.49l-9-1.25C482.18,382.94,483.22,382.33,483.79,381.5Z" transform="translate(-465.46 -293.76)"/><path class="cls-6" d="M590.42,328l1.33-5.19a1,1,0,0,1,.78-.34,73.46,73.46,0,0,1,9,1.25,13.05,13.05,0,0,0,6.9.92c3.26-.59,6.46-1.45,9.7-2.11.8-.17,1.64-.41,2.36.26l0,.47a9.58,9.58,0,0,1,0,3.07,8.83,8.83,0,0,1-.73,3.72c-2.55.86-5.2,1.32-7.8,2a3.87,3.87,0,0,0-1.5.54c-2,.32-4-.33-5.94-.44-1.16-.06-2.31-.29-3.47-.39a1.59,1.59,0,0,0-1.89,1.21,2.74,2.74,0,0,1-1,1.68,18.35,18.35,0,0,0-3.9.63,3.18,3.18,0,0,1-3.26-1,8.55,8.55,0,0,1-1.74-1.91,5.45,5.45,0,0,1,.47-1.78,3.15,3.15,0,0,1,2.21-.67,2.34,2.34,0,0,0,1.75-.56C592.75,328.36,591.26,329,590.42,328Z" transform="translate(-465.46 -293.76)"/><path class="cls-7" d="M496.47,321.27a9.59,9.59,0,0,1-1.43-11c.58-.47,1.1-.11,1.62.13,2.6,1.22,5,2.77,7.57,4.08a6.73,6.73,0,0,0,2,.88,32.22,32.22,0,0,1,6,1.82c3.43,1.13,6.83,2.37,10.28,3.44.75.23,1.58.47,1.46,1.55-1,1.62-2.36,2.94-3.12,4.69a.69.69,0,0,1-.5.33,2.3,2.3,0,0,1-1.1-.18c-7.19-2.35-14.68-3.46-22-5.44A4,4,0,0,1,496.47,321.27Z" transform="translate(-465.46 -293.76)"/><path class="cls-8" d="M523.74,322.23c.06-.61-.27-.87-.83-1.05-2.29-.71-4.59-1.45-6.87-2.22s-4.77-1.64-7.13-2.51a16.89,16.89,0,0,0-2.29-.54c-2.23-.52-4-1.94-6-2.94s-3.53-2.16-5.56-2.7a19.3,19.3,0,0,1,5-6.75,1.48,1.48,0,0,1,1.3.27c4.47,2.49,9,4.82,13.46,7.38A61.63,61.63,0,0,1,520,315c1.77,1.27,3.7,2.24,5.57,3.32.7.4,1.58.65,1.6,1.71A5.63,5.63,0,0,1,523.74,322.23Z" transform="translate(-465.46 -293.76)"/><path class="cls-9" d="M534,384.7c2.06.34,4.16.27,6.19.77a71.85,71.85,0,0,0-18,5.48c-7.86,3.48-15.56,2.84-23.17-.78-.29-1,.57-1,1.11-1.29,2.44-1.13,5.15-1.31,7.68-2.1,3.85-1.2,7.75-2.19,11.65-3.17.33-.09.58-.33.9-.43a7.08,7.08,0,0,1,3,.09,43.27,43.27,0,0,1,5.2.56c1.23,0,2.45.19,3.68.22A2.24,2.24,0,0,1,534,384.7Z" transform="translate(-465.46 -293.76)"/><path class="cls-10" d="M470.51,349.26a2.7,2.7,0,0,1,.56-.24c.42-.09,1.06.1,1.06-.56s-.56-.65-1-.79a9.7,9.7,0,0,1-5-3.69c-1.19-1.59-.71-3,1.22-3.44l.12,0c2.76-.6,2.8-.71,1-2.73-1.26-1.41-1.34-5-.14-6.45a2.26,2.26,0,0,1,3.29-.61c2.66,1.52,3.45,3.57,2.59,6.67-.14.5-.69,1.05,0,1.56a1.44,1.44,0,0,0,1.93-.23c.61-.53,1.57-.61,1.9-1.5a14.07,14.07,0,0,1,3.82,4.78,55.21,55.21,0,0,0-3,4.74c-.38.55-.11.93.27,1.3s.87.52,1.06,1a1,1,0,0,1-.59,1.25c-1.44-1.33-3.06-2.66-3.39-4.65a5.5,5.5,0,0,1,1.45-4.3,7,7,0,0,0-1.43,3.34c0,.29,0,.64-.29.77s-.62-.15-.84-.38a7.34,7.34,0,0,1-2.17-3.68,4.78,4.78,0,0,0-.9-2.3,6.12,6.12,0,0,1-1.3-4.32,5.46,5.46,0,0,0,.13,1.68c0,.12.05.31-.05.35-1.41.68-.16,1.22.16,1.64,1.2,1.61,1.78,3.56,3,5.18a.45.45,0,0,1,0,.58c-.19.21-.44.16-.69.07-1-.39-1.86-1.1-2.75-1.43a20.28,20.28,0,0,0,4,1.82c.61.14,1.06.8,1.44,1.34,1.14,1.63,2.47,3.11,3.62,4.73a13.29,13.29,0,0,1-.73,2.92c-.29,1-.38,2-.65,3-.47.73-1,.58-1.57.12a3.6,3.6,0,0,1-.58-.65,5.28,5.28,0,0,0-3.6-2.38,5.37,5.37,0,0,1-2.36-1.09c-.33-.25-.69-.58-.45-1s.71-.23,1.09-.08a4,4,0,0,0,1.61.56C471.91,351,470.83,350.37,470.51,349.26Z" transform="translate(-465.46 -293.76)"/><path class="cls-11" d="M502.25,301.51a26.49,26.49,0,0,1,6.74-4.26,2.74,2.74,0,0,1,2,.44c6.39,3.56,13,6.73,19.15,10.7a1.86,1.86,0,0,1,.89.84,11.54,11.54,0,0,1,.07,4.06,1,1,0,0,1-1.29.69,5.51,5.51,0,0,1-1.33-.33c-3.45-1.35-7-2.32-10.49-3.61a40.54,40.54,0,0,1-3.75-2c-3.9-1.95-7.61-4.27-11.56-6.14A.9.9,0,0,1,502.25,301.51Z" transform="translate(-465.46 -293.76)"/><path class="cls-12" d="M483,333.05c.92-.4.47-.91,0-1.31a9.22,9.22,0,0,1-2.42-4.84c-.55-2.38.52-3.35,2.83-2.63l.59.2c1.32.41,1.76.06,1.41-1.27a5.33,5.33,0,0,1,1.77-5.51c1.53-1.47,3-1.17,4,.74a4.59,4.59,0,0,1-.81,6c-.43.45-1.26.84-.83,1.63s1.33.67,2.13.56a4.11,4.11,0,0,1,3.92,1.37c1,1.1.86,2.18-.35,3a32.5,32.5,0,0,1-3.19,1.7,4,4,0,0,0-1.63,1.32,1.85,1.85,0,0,1-2.51-.25,1.19,1.19,0,0,1,.07-1.39,7.79,7.79,0,0,1,3.56-3,8.44,8.44,0,0,0-3.25,2.49c-.15.18-.23.5-.54.42s-.26-.37-.31-.61c-.85-3.62-.81-7.15.43-9.39a12.69,12.69,0,0,0-.8,7.26c0,.28.15.63-.22.75s-.53-.16-.71-.4c-.54-.74-.9-1.59-1.2-2a12.73,12.73,0,0,0,2.15,2.94c.54.43.47,1.36.61,2.09.31,1.49.55,3,.81,4.5.05.29.08.59.42.7l.36.05c.73.23,1.6-.06,2.21.59,0,.59-.41.8-.87.86a15.51,15.51,0,0,1-3,.38,20.86,20.86,0,0,0-3.28-1.37c-.44-.14-.86-.3-1-.8a8,8,0,0,0-.33-2.71A3.07,3.07,0,0,1,483,333.05Z" transform="translate(-465.46 -293.76)"/><path class="cls-13" d="M610.77,360.48c.65-.08,1.31-.2,2-.22a2.82,2.82,0,0,1,3,2.43c.36,2.35.25,4.62-1.4,6.55a1.35,1.35,0,0,0-.34.78,12.89,12.89,0,0,1-3.18,1.67c-.46.19-1,.32-1,.95s.46.85.9,1.11a8.14,8.14,0,0,0,1.5.61,5.51,5.51,0,0,1,4.07,4.39v0a.46.46,0,0,1,.11.46c-.62,1.13-1,2.44-2.05,3.27a1.17,1.17,0,0,1-.74,0c-1-.75.34-1.14.22-1.82a31.79,31.79,0,0,0-4.38,1.48,16.54,16.54,0,0,1-3.65,1.48,4.15,4.15,0,0,1-2.76-2.39c.21-1.59,1.62-1.91,2.73-2.41a9,9,0,0,1,4.87-.76,9.88,9.88,0,0,0-6,1.31c-.26.15-.53.29-.81.12a.74.74,0,0,1-.31-.88c.85-3.47,1.82-6.88,4.18-9.71a17.68,17.68,0,0,1,3.68-3.53c-.88.31-1.39,1.53-2.59,1.72a1,1,0,0,1-.59-.75,10.54,10.54,0,0,0-1.28-2.79A5.08,5.08,0,0,1,610.77,360.48Z" transform="translate(-465.46 -293.76)"/><path class="cls-14" d="M496.47,321.27c1.23-.48,2.38.09,3.49.39,4.19,1.15,8.41,2.15,12.69,2.94a66.93,66.93,0,0,1,7.81,2.41,4.47,4.47,0,0,1,.1,2.82c-.7,2.63-.7,2.63-3.49,2.41s-5.44-.61-8.16-.87a23.5,23.5,0,0,1-3.85-.94,47.64,47.64,0,0,0-6.27-1.49c-.43-.08-.92,0-1.25-.43A10.21,10.21,0,0,0,496.47,321.27Z" transform="translate(-465.46 -293.76)"/><path class="cls-15" d="M591.67,407.93l.06-.68c1.66-1.4,3-3.11,4.77-4.44.54.1.8-.23,1.07-.64,1.56-2.38,2.37-4.88,1.27-7.7a1,1,0,0,1,0-.61.64.64,0,0,1,.24-.3c1.11-.42,1.74.25,2.32,1a2.34,2.34,0,0,1,.26.68c.39,1.61.39,1.61,2,1.15a2.67,2.67,0,0,1,2.23.67,1.58,1.58,0,0,1-.28,2.36,13.3,13.3,0,0,1-2.22,1.3,20.12,20.12,0,0,0-2.22,1.13c-.34.24-.71.55-.52,1s.69.56,1.17.47a10.07,10.07,0,0,0,2.69-1.28c2.08-1,3.19-.95,4.29.38,0,.41.39.79.14,1.24-.62.05-.8.6-1.13,1,.15.36-.06.59-.3.81-.56.94.07,1.48.72,1.93a4.63,4.63,0,0,0,1.39.51c1.61.44,2,1.7.89,3-1.71,1.94-4,2-6.3,1.76a16.88,16.88,0,0,1-2.18-.45,6.37,6.37,0,0,1-4.13-2.17c-.31-.41-.79-.78-.36-1.39,1.11,0,1.91.72,2.83,1.14a8,8,0,0,0,4.19.95,27.55,27.55,0,0,0,2.72-.82,23.11,23.11,0,0,1-2.76.82,7.29,7.29,0,0,1-3.73-.76,34.92,34.92,0,0,0-3.27-1.55.74.74,0,0,1-.6-.7c0-.36.3-.46.56-.6a5.22,5.22,0,0,1,2.74-.66,6.44,6.44,0,0,0,4.1-.7,5.76,5.76,0,0,1-3.53.71,6.93,6.93,0,0,0-4.14,1.07,6.44,6.44,0,0,1-4.7.66A.62.62,0,0,1,591.67,407.93Z" transform="translate(-465.46 -293.76)"/><path class="cls-16" d="M502.25,301.51a8.54,8.54,0,0,1,3.61,1.53c2.89,1.7,6,3,8.83,4.79a31.22,31.22,0,0,0,7.39,3.17c2.62.79,5.11,1.93,7.76,2.58.32.08.63.26.91-.08.45,0,.57.33.61.65a13.92,13.92,0,0,1,.45,3.69,1.25,1.25,0,0,1-.8.87,32.67,32.67,0,0,1-3.65,1.46A.54.54,0,0,1,527,320c0-.62-.54-.86-1-1-4.37-1.91-7.84-5.21-11.86-7.65-2.52-1.52-5.12-2.9-7.7-4.32-2.14-1.18-4.31-2.32-6.46-3.48Z" transform="translate(-465.46 -293.76)"/><path class="cls-17" d="M610.77,360.48c-1.31.93-2.85,1.58-3.73,3-.29,1.46-.86,2.84-1.17,4.3a1.17,1.17,0,0,1-1.21.9c-1.54-.3-2.39-1.63-3.61-2.41-1.22-.54-1.75-.38-2.48.69-.33.48-.38,1.2-1.1,1.39-.8-.1-1.31.12-1.38,1.05,0,.38,0,1.3-.88.53a44.73,44.73,0,0,1-.2-7.59c.32-.5.83-.45,1.32-.44,1.48,0,1.77-.2,2.09-1.64a19.27,19.27,0,0,1,.68-3.62,3.28,3.28,0,0,1,1.72-.91c2.19-.61,4.42-1.07,6.65-1.53.63-.13,1.33-.3,1.72.51C609.72,356.66,610.24,358.57,610.77,360.48Z" transform="translate(-465.46 -293.76)"/><path class="cls-18" d="M520.25,383.53a1.31,1.31,0,0,1-.93.56c-4.7,1.26-9.38,2.62-14.11,3.74-1.82.43-3.58,1-5.34,1.59-.41.13-.81.23-.86.75a31.85,31.85,0,0,1-7.5-4.73c2,0,4,.1,6,0a19.46,19.46,0,0,0,6.79-1.23,6.6,6.6,0,0,0,4.19-4.25,2.25,2.25,0,0,1,1-.93,43.76,43.76,0,0,1,6.15-2,1.08,1.08,0,0,1,.84.09c.4.45.19.94.11,1.42a3.5,3.5,0,0,0,2.22,4.1C519.34,382.89,520,382.9,520.25,383.53Z" transform="translate(-465.46 -293.76)"/><path class="cls-19" d="M530.72,309a13.76,13.76,0,0,1-3.9-2.15c-4.79-3.06-10-5.31-14.9-8.24a30,30,0,0,0-2.93-1.36,25.08,25.08,0,0,1,6.76-2.72c3,.9,5.49,2.7,8.23,4.07s5,3,7.72,4.06a.51.51,0,0,1,.23.29C531.61,305,531.56,307.07,530.72,309Z" transform="translate(-465.46 -293.76)"/><path class="cls-20" d="M613.19,340.18A19.55,19.55,0,0,0,609,347.8c-3.39.63-6.74,1.46-10.07,2.37a2.09,2.09,0,0,1-.86.08c-.69-.16-.87-.76-1.13-1.29a42.63,42.63,0,0,0-2.32-4,1.49,1.49,0,0,1-.34-1c.18-.72.77-.93,1.38-1.07,1-.22,1.92-.51,2.89-.74.62-.15.89-.37.46-1-.28-.42-.49-.9.08-1.3a14.49,14.49,0,0,1,3.83.22c1.71.22,3.44.37,5.14.64a1.58,1.58,0,0,0,1.88-1c.38-.7.33-1.65,1.16-2.1.17,0,.39,0,.44.16A5.59,5.59,0,0,0,613.19,340.18Z" transform="translate(-465.46 -293.76)"/><path class="cls-21" d="M495.28,379.23c-2.53.83-5.19,1-7.75,1.74a1.22,1.22,0,0,1-.95-.21l-.12-.21c.14-1.25,1-2.06,1.76-2.95a3.63,3.63,0,0,0,.83-2.39c0-2.33-.1-4.66.06-7,.09-1.62,0-3.29.86-4.77a.94.94,0,0,1,1,.1,34.53,34.53,0,0,0,4.38,2.52.67.67,0,0,1,.36.48c-.24,2.58.89,4.83,1.74,7.14A9,9,0,0,1,495.28,379.23Z" transform="translate(-465.46 -293.76)"/><path class="cls-22" d="M620.47,322.76c-2.41-.12-4.64.81-7,1.22-1.92.33-3.79,1-5.71,1.21a11.62,11.62,0,0,1-6.33-1.17c0-.07.1-.17.16-.18,1.75,0,1.71-1.24,1.65-2.5a2.66,2.66,0,0,1,.36-1.92,1.8,1.8,0,0,1,.91-.38c4.14-.82,8.26-1.73,12.39-2.57a2.22,2.22,0,0,1,2,.3A16.59,16.59,0,0,1,620.47,322.76Z" transform="translate(-465.46 -293.76)"/><path class="cls-23" d="M619,316.77c-2.64,0-5.11,1-7.68,1.35s-5,1.29-7.54,1.39c-.69-.05-.68-.65-.78-1.09a10.78,10.78,0,0,0-1.41-3.31c-.92-1.44-.6-2.09,1.11-2.57A60,60,0,0,1,609,311.3a19.94,19.94,0,0,0,4-1c1,.06,1.68,1.13,2.77,1A23.12,23.12,0,0,1,619,316.77Z" transform="translate(-465.46 -293.76)"/><path class="cls-24" d="M490.26,363.45a19.41,19.41,0,0,0-.78,4.79,2,2,0,0,1-1.14.69c-2.32.58-4.63,1.16-7,1.7a1.32,1.32,0,0,1-1.19-.12,21.26,21.26,0,0,1-1.94-6.75c-.07-.52.35-.63.68-.73a88.77,88.77,0,0,1,11.38-2.7c.41.16.38.52.29.83C490.39,361.91,490.4,362.69,490.26,363.45Z" transform="translate(-465.46 -293.76)"/><path class="cls-25" d="M497.54,328.51a16.6,16.6,0,0,1,5.59.92c1.88.49,3.75,1.05,5.62,1.58a3,3,0,0,1,1.41,2,2,2,0,0,1-1.31,1.73,13.82,13.82,0,0,0-1.43.42c-1.77-.37-3.15.62-4.61,1.35-2.47-.33-4.92-.8-7.38-1.21-.75-.13-1.62.09-2.22-.61C494.91,332.84,496.69,331,497.54,328.51Z" transform="translate(-465.46 -293.76)"/><path class="cls-26" d="M530.72,309a24.41,24.41,0,0,1,1-6.24,3.17,3.17,0,0,1,1.29-3.51c2.56,2.36,5.11,4.72,7.68,7.07a18.54,18.54,0,0,0,1.58,1.18c-.67.55-1.41.22-2.11.12a3.93,3.93,0,0,0-3.67.85c-.46,1.06-1.34,1.86-1.85,2.9a21.18,21.18,0,0,0-2,5.55c-.1.54-.13,1.33-1.08,1.12a34.66,34.66,0,0,0-.75-4.54Z" transform="translate(-465.46 -293.76)"/><path class="cls-27" d="M487.5,339.75a13,13,0,0,1,3-.5.94.94,0,0,0,.95-.45.7.7,0,0,1,.69-.19c1.8.42,3.67.64,5.15,1.93,0,.81-.64,1-1.28,1.11-3.39.32-6.74,1-10.14,1.31a2.29,2.29,0,0,0-1.76.77,1.62,1.62,0,0,1-.92.61,2.45,2.45,0,0,1-1.48-2.33c-1.17-1.65-2.77-3-3.72-4.78-.53-1.32-1.12-2.72.08-3.94s2.79-1,4.3-.42c.19.07.39.12.59.18l.9,4c.08.35-.12.53-.39.68-1.44,0-1.84-1.36-2.61-1.93a7.92,7.92,0,0,0,4.3,3C486,339,486.71,339.47,487.5,339.75Z" transform="translate(-465.46 -293.76)"/><path class="cls-28" d="M580.07,403.23c.31-3.85.82-7.68,1-11.54a4.23,4.23,0,0,1,.71-2.22c.9-1.38,1.72-2.82,2.73-4.5,0,.67,0,1.06,0,1.45-.2,6.81.81,13.51,1.85,20.21,0,.12,0,.24,0,.37A19.63,19.63,0,0,1,580.07,403.23Z" transform="translate(-465.46 -293.76)"/><path class="cls-29" d="M572.47,297l-.25.45c-.41.6,0,1.19,0,1.78,0,.08,0,.16,0,.23-.91.57-1,1.63-1.42,2.47a8.44,8.44,0,0,0-.53,1.23,2.31,2.31,0,0,1-2.59,1c-1.46-.18-2.95-.17-4.4-.47a16.46,16.46,0,0,1-2.33-.27,8.69,8.69,0,0,0-4.74.35c-.21-1-.84-2.13.93-2.39.56-.09.65-.52.18-.88-.72-.56-.54-1.18-.25-1.87.42-1,.8-2.08,1.2-3.11.52-.48,1-.17,1.48.07a9.66,9.66,0,0,1,1.9,1.16c.65.56.55,1-.21,1.43l-.34.14c-.36.1-.83.17-.88.57s.44.53.73.75a1,1,0,0,0,.34.19c-.12-.41-.88-.66-.49-1.12a3.24,3.24,0,0,1,2.36-.91.91.91,0,0,1,1.06.95,5.08,5.08,0,0,1-1.1,1.91,1.82,1.82,0,0,1,1.59-.44c2.09.66,3.67-.3,5.28-1.61-1.51-.81-3.3-.31-4.63-1.34-.69-.51-1.69-.81-1.35-2l7.28.76C571.93,296.1,572.14,296.64,572.47,297Z" transform="translate(-465.46 -293.76)"/><path class="cls-30" d="M609.24,381.77a47.44,47.44,0,0,1,5.4-1.79c.1,1.12-1.16,1.39-1.2,2.31.22.5-.52.95,0,1.53.67-.35.57-1.09.82-1.63a.44.44,0,0,0,.1-.08c.63-1.13,1.27-2.25,1.91-3.38.45,1,1.2.42,1.92.32.11,1.67-.74,3.11-.94,4.68a14,14,0,0,1-2.69,5.41c-.6.84-1.18,1.71-1.86,2.5-.38.44-.72.93-1.38,1a8.85,8.85,0,0,1-1.77-.81,2.56,2.56,0,0,0-3.21.26c-1,.79-2.14,1.41-3.23,2.11-.5.32-1,.78-1.69.3a5.09,5.09,0,0,1,1.06-3.14c2.62-1.75,5.4-3.25,7.94-5.1,1.35-1,1.43-1.7.39-3C610.31,382.73,609.27,382.77,609.24,381.77Z" transform="translate(-465.46 -293.76)"/><path class="cls-31" d="M598,350c3.13-1,6.34-1.63,9.54-2.38.52-.12,1.06-.28,1.51.18-.6,2.33-.07,4.64.17,6.95a1.48,1.48,0,0,0-1.19-.2c-2.92.75-5.92,1.16-8.76,2.2a1.36,1.36,0,0,1-.6-1.07,34.5,34.5,0,0,0-.79-4.15C597.72,351,597.52,350.48,598,350Z" transform="translate(-465.46 -293.76)"/><path class="cls-32" d="M480.19,370.51l9.29-2.27c0,2.6,0,5.21,0,7.81a1.44,1.44,0,0,1-.18.95c-.95,1.19-1.91,2.36-2.86,3.55A31.57,31.57,0,0,1,480.19,370.51Z" transform="translate(-465.46 -293.76)"/><path class="cls-33" d="M533,299.25c-.78,1-.87,2.34-1.29,3.51a1,1,0,0,1-1.14,0c-4.37-2.44-8.76-4.83-13.12-7.27-.57-.31-1.32-.31-1.7-.94a42.09,42.09,0,0,1,4.4-.74,14.08,14.08,0,0,1,10.38,3.39Z" transform="translate(-465.46 -293.76)"/><path class="cls-34" d="M490.43,360.49c-3.2,1.15-6.62,1.42-9.85,2.5l-2.33.77a2.29,2.29,0,0,1-.22-1.54,5.76,5.76,0,0,1,2.26-2.43c3.74-3,7.62-5.76,12.33-7.1a1.41,1.41,0,0,1,1.13.19c.36.44.17.88-.05,1.28a35.36,35.36,0,0,0-2.55,5.52A1.09,1.09,0,0,1,490.43,360.49Z" transform="translate(-465.46 -293.76)"/><path class="cls-35" d="M497.22,340.54a54.78,54.78,0,0,0-5.73-1.74,8.65,8.65,0,0,1-2.48-.3c.26-1.41,1.56-1.84,2.48-2.62.21-.17.54-.2.77-.37l.95-.78a61.2,61.2,0,0,1,9.78,1.52c.34.39.13.79,0,1.16a3,3,0,0,0,.54,3.25c.53.64,1.11,1.35.58,2.23a2.16,2.16,0,0,1-2.23,1,31.67,31.67,0,0,0-3.87-2.62A1.64,1.64,0,0,1,497.22,340.54Z" transform="translate(-465.46 -293.76)"/><path class="cls-36" d="M611.27,392.51c.86-.77,1.37-1.87,2.12-2.63,1.77-1.8,2.51-4.14,3.83-6.15a20.47,20.47,0,0,1-4.58,15c-.25.64-.83.62-1.35.65a30.51,30.51,0,0,0-5,.3c-.36.09-.86.15-1-.44a1.4,1.4,0,0,0,.41-2s0-.09,0-.12A38.44,38.44,0,0,1,611.27,392.51Z" transform="translate(-465.46 -293.76)"/><path class="cls-37" d="M492.54,353c-5.57,1.91-10.14,5.4-14.51,9.21l-.3-3a2.4,2.4,0,0,1,.21-2.51,10.18,10.18,0,0,1,.63-3.23c.83-.76,1.9-.54,2.86-.61,3.09-.23,6.18-.59,9.28-.64C491.4,352.26,492.16,352.21,492.54,353Z" transform="translate(-465.46 -293.76)"/><path class="cls-38" d="M613.19,340.18c-1.65,0-1.64-1.35-2-2.42-.39-.47,0-1.07-.27-1.55a2.65,2.65,0,0,1,.19-1.25,2.78,2.78,0,0,1,.21-.57c.36-.74.49-1.39-.57-1.65a.4.4,0,0,1-.32-.45,1.21,1.21,0,0,1,1-.64c2.42-.57,4.83-1.11,7.25-1.69a1.33,1.33,0,0,1,1.07.06A21.69,21.69,0,0,1,613.19,340.18Z" transform="translate(-465.46 -293.76)"/><path class="cls-39" d="M477.94,356.75a13.22,13.22,0,0,1-.21,2.51,34.9,34.9,0,0,0-5.64-2.55,9,9,0,0,1-3.45-1.91c-.91-.86-1.78-1.79-1.27-3.11a3.46,3.46,0,0,1,3.14-2.43c1.1.65,1.59,1.86,2.46,2.72a.6.6,0,0,1,.12.56c-.12.27-.42.19-.66.13a9.65,9.65,0,0,1-2.54-1.18.94.94,0,0,0,.64,1,5.67,5.67,0,0,0,2.29.93c1.8.09,2.71,1.34,3.69,2.55C476.87,356.44,477.09,357.22,477.94,356.75Z" transform="translate(-465.46 -293.76)"/><path class="cls-30" d="M605.26,399.29s.07.09.09.08c2.41-.48,4.87-.22,7.29-.59,1.11.28,2.25.52,3.34.87.43.13,1.35.13,1.1.78a1.52,1.52,0,0,1-1.76,1.05c-.6-.16-1.2-.35-1.79-.55-.41-.13-.93-.29-1,.24s.46.76.92.79c.65,0,1.27-.39,2.07-.1a12.33,12.33,0,0,1-3,2.4c-1.09-.14-2.1-.68-3.23-.75a.65.65,0,0,1-.67-.73c-.66-1.12-1.66-1.1-2.73-.81-.47.13-.93.32-1.4.48a2,2,0,0,1-1.23-2Z" transform="translate(-465.46 -293.76)"/><path class="cls-40" d="M561.05,387.47a44.6,44.6,0,0,1,6,.43c2,.14,4,.64,5.89-.24l.09,7.68a39.79,39.79,0,0,0-11.53-7.74A3.33,3.33,0,0,0,561.05,387.47Z" transform="translate(-465.46 -293.76)"/><path class="cls-41" d="M616.25,378.75a7.11,7.11,0,0,0-5.15-4.37,3.24,3.24,0,0,1-1.4-.78,1.21,1.21,0,0,1,.46-2.12A12.64,12.64,0,0,0,613.3,370a.48.48,0,0,1,.67,0c.7,2.5,1.38,5,2.11,7.51A7.61,7.61,0,0,1,616.25,378.75Z" transform="translate(-465.46 -293.76)"/><path class="cls-42" d="M564,298.76c-.17-.64-.57-.76-1.14-.56s-1.26.42-1.91.63c.17.57.74.54,1,.85a.53.53,0,0,1,.11.77c-.2.27-.45.13-.66,0a3.15,3.15,0,0,1-.52-.35c-.49-.46-1.55-.54-1.44-1.33s1.09-.59,1.67-.88c.23-.12.65-.05.63-.47a.67.67,0,0,0-.49-.52c-1-.39-1.8-1.39-3-1.38a1.29,1.29,0,0,1,1.51-.78,26.28,26.28,0,0,1,4.23.52c.19.84.89,1.25,1.49,1.74C565.42,298,565.09,298.7,564,298.76Z" transform="translate(-465.46 -293.76)"/><path class="cls-43" d="M588.14,416.26a1.83,1.83,0,0,0,2.63-.34,1.87,1.87,0,0,1,.88,1.3c.16.68.06,1.16-.81,1.34a36.11,36.11,0,0,1-5.27.93c-.34,0-.83.24-1-.22s.29-.8.71-1c.6-.29,1.22-.53,1.8-.85A1.64,1.64,0,0,0,588.14,416.26Z" transform="translate(-465.46 -293.76)"/><path class="cls-44" d="M576.25,417.39a2.33,2.33,0,0,0,2.67-.13,8.25,8.25,0,0,1,.38,1.05c.24,1.24,0,1.58-1.29,1.62-1.65.05-3.32,0-5,0-.36,0-.95.11-1-.49s.43-.66.86-.76A8,8,0,0,0,576.25,417.39Z" transform="translate(-465.46 -293.76)"/><path class="cls-45" d="M556.21,303.79c.85-1.35,2.2-1,3.42-1s2.43.3,3.65.46c.33.25,1,.26.83.87s-.63.78-1.17.88l-4-.28-1.78-.27C556.75,304.43,556.33,304.33,556.21,303.79Z" transform="translate(-465.46 -293.76)"/><path class="cls-46" d="M483.79,381.5c0,.24.44.53.06.74-.79.43-1,1.27-1.36,1.95a3.67,3.67,0,0,0-1.79,1.05c-.46.37-.91.74-1.59.43a23.62,23.62,0,0,1,2.28-4C482.33,380.39,482.51,380.38,483.79,381.5Z" transform="translate(-465.46 -293.76)"/><path class="cls-15" d="M591.52,409.26c.1-.44-.2-.92.15-1.33l.11.1a5.32,5.32,0,0,0,3.5-.1c.66-.2,1.21-.26,1.66.35a3.24,3.24,0,0,1,.16,1.82c-.11.44-.25.9-.86.88A15.66,15.66,0,0,1,591.52,409.26Z" transform="translate(-465.46 -293.76)"/><path class="cls-47" d="M492.26,335.51l-3.25,3h-.25a12.26,12.26,0,0,1-.73-5,4.09,4.09,0,0,0,2.45.5C490.41,335.27,491.14,335.62,492.26,335.51Z" transform="translate(-465.46 -293.76)"/><path class="cls-48" d="M608.6,402.78a1,1,0,0,0,1,.46,3.24,3.24,0,0,1,2.86,1,7.32,7.32,0,0,1-2,1.21,1.25,1.25,0,0,1-1.41,0c-.52-.4-.34-.85-.13-1.33.06-.12,0-.31-.05-.47C608.68,403.43,608.43,403.17,608.6,402.78Z" transform="translate(-465.46 -293.76)"/><path class="cls-49" d="M596.24,411c.79-.79.43-1.78.46-2.69.42-.21.68-.09.77.37a6,6,0,0,0,3.28,3c.41.2.83.36,1.24.53A21,21,0,0,1,596.24,411Z" transform="translate(-465.46 -293.76)"/><path class="cls-22" d="M620.51,326.3c0-1,0-2.05,0-3.07A4.88,4.88,0,0,1,620.51,326.3Z" transform="translate(-465.46 -293.76)"/><path class="cls-50" d="M607.47,405.5a1,1,0,0,1,.3-.81c.31.21.9.29.67.8S607.8,405.46,607.47,405.5Z" transform="translate(-465.46 -293.76)"/><path class="cls-51" d="M544.25,317c3.18.57,6.13,1.58,8.33,4.18,1.59,1.89,1.23,4,.89,6.14a7.94,7.94,0,0,1-3.07,4.39,22.34,22.34,0,0,1-10.15,4.7,5.84,5.84,0,0,0-.59.2,30.93,30.93,0,0,1-6.43.74,2.38,2.38,0,0,0-1.5.43c-1.3-.34-2,.89-3,1.27-.51.2-.11,1.16-.33,1.73-2.23,3.6-4.89,6.9-7.32,10.37-.56.8-1,1.75-2,2.17a3.13,3.13,0,0,1-3.28-1.1,2.14,2.14,0,0,1,.46-2.31c1.56-2.27,3.2-4.46,4.84-6.66a6.26,6.26,0,0,0,.56-.82,7.83,7.83,0,0,1,3-2.78c.47-.21.7-.7,1-1.08a2.37,2.37,0,0,0,.23-.3c.34-.51,1-.94,1-1.54,0-.82-1-.58-1.36-1a.9.9,0,0,1-.23-.43,5.1,5.1,0,0,1,1.11-2.36c.65-.28,1.15.19,1.72.34a19.12,19.12,0,0,0,6.3,1.15,25.54,25.54,0,0,0,6.94-1.16c.16-.06-.05,0,.12,0,1.38-.26,2.32-.92,2.29-2.49a7.42,7.42,0,0,0,2-2.66c.26-.83.53-1.7-.17-2.46a2.89,2.89,0,0,0-2.87-1.08,5.38,5.38,0,0,0-3,2.08c-1.55.08-2.46-1.12-3.62-1.8a4.3,4.3,0,0,1,3.62-2.84c-1.84.28-1.84.28-2.63-.24a.4.4,0,0,1,.18-.36,9.29,9.29,0,0,1,4.88,0c3.61.57,6,1.83,7.6,4.05.19-2.2-1.11-3.49-2.84-4.54a14.9,14.9,0,0,0-3.62-1.3c-.55-.17-1.14-.08-1.7-.22a7.08,7.08,0,0,0-3.57,0,2,2,0,0,1-.41,0c-.75.07-1.48.26-2.22.36a1.36,1.36,0,0,1-1.29-.22,2.38,2.38,0,0,1,1.76-2.55A11.72,11.72,0,0,1,544.25,317Z" transform="translate(-465.46 -293.76)"/><path class="cls-52" d="M613,310.28c0,.52-.4.62-.83.76a50.62,50.62,0,0,1-6.45,1.24,36.36,36.36,0,0,0-3.74.9c-.5.13-.88.51-.47,1a14.1,14.1,0,0,1,2.26,5.32c0,1.18,0,2.37,0,3.56,0,.9-.17,1.33-1.18,1a3.58,3.58,0,0,0-1.09,0l-9.73-1.24c.82-3.63,2.1-7,5.58-9.48l-10.84-1.05c-.25-.24-.81-.19-.76-.69s.49-.63.88-.78a9.42,9.42,0,0,1,1.81-.46c5.29-.84,10.55-1.88,15.82-2.83a26.91,26.91,0,0,1,7.59,2.32Z" transform="translate(-465.46 -293.76)"/><path class="cls-53" d="M549.5,336.09c2.33,3.82,3.16,8.14,4.18,12.4a6.41,6.41,0,0,1,.07,1.24c-.37.85-1.24.69-1.9.95a17.93,17.93,0,0,0-3.92,1.89c-.64.44-1.22.49-1.66-.29a1.91,1.91,0,0,0-1.58-.85c-2.26-.36-4.53-.51-6.81-.73a9.79,9.79,0,0,1-2.56-.47c-1.5-1.44-1.39-2.28.45-3.31a18.28,18.28,0,0,1,4.5-1.81c1-.26,1.54-.75,1.14-1.85-.09-.65-.58-.89-1.13-1.05a21.38,21.38,0,0,1-2.37-1.76c-.43-.32-.84-.74-.37-1.35a9.6,9.6,0,0,1,2.89-.73,7.12,7.12,0,0,0,.8,0,12.59,12.59,0,0,0,6.86-1.84C548.5,336.25,548.89,335.74,549.5,336.09Z" transform="translate(-465.46 -293.76)"/><path class="cls-54" d="M566.49,347.5c1-.78,1.14-2.12,2.07-3a9.8,9.8,0,0,1,5.72-3.05c1.23-.16,2.33-.84,3.58-1,.24,0,.32-.23.38-.44.45-.22.74,0,1,.33a3.65,3.65,0,0,1,.43,1.89c.15,1.4.67,2.52,2.23,2.81a.78.78,0,0,1,.28.29,2.05,2.05,0,0,1-.45,2.31c-1.68,1-3.46,1.82-5.21,2.69a75.63,75.63,0,0,1-8.37-.74C567.21,349.22,566.27,348.82,566.49,347.5Z" transform="translate(-465.46 -293.76)"/><path class="cls-55" d="M566.49,347.5a3.12,3.12,0,0,0,1.5,1.73c1,1.49,2.22,2.62,4.23,2.4.46-.05,1.14,0,1.12.68s-.66.75-1.21.8-1-.2-1.45,0a.5.5,0,0,0,.08.59c.38.54.55,1.41,1.14,1.57.79.2.8-.87,1.3-1.26a1.74,1.74,0,0,1,.52-.32c.45,0,.67.33.84.66a16.19,16.19,0,0,0,2.64,4.06.91.91,0,0,1,.22.7,4.91,4.91,0,0,1-8.2.93,18.56,18.56,0,0,1-2.32-4.12A102.43,102.43,0,0,1,563,345.25c-.34-.45-.4-1-.79-1.51a1.31,1.31,0,0,1-.06-1.63,1.51,1.51,0,0,0,.18-2,.5.5,0,0,1,.09-.68c.27-.16.42.12.58.32a5.73,5.73,0,0,1,1.1,2.48A17.65,17.65,0,0,0,566.49,347.5Z" transform="translate(-465.46 -293.76)"/><path class="cls-56" d="M604.24,307.49c-.32.6-.94.65-1.49.75q-6.66,1.22-13.31,2.4c-.89.16-1.78.32-2.67.52-1.09.24-.84.56-.28,1.09l-10.09-1c-.14,0-.28-.15-.42-.23a33.73,33.73,0,0,1,11.65-4.19c5.45-1,10.88-.51,16.28.53A2.49,2.49,0,0,1,604.24,307.49Z" transform="translate(-465.46 -293.76)"/><path class="cls-57" d="M599,340a1.39,1.39,0,0,0,.47,1.1c.82.91.72,1.13-.51,1.39s-2.33.52-3.49.81a1.38,1.38,0,0,0-1,.7c-.46.15-.68-.2-.92-.46a25.22,25.22,0,0,0-5-4.38,1.92,1.92,0,0,1-.78-.93l1.52-6a4.56,4.56,0,0,1,1.74,1.33,2.75,2.75,0,0,0,3.25,1.17c.86-.28,1.78-.35,2.66-.57.44-.11.81-.22,1,.29.46.68-.08,1.24-.22,1.84s-.31.92-.39,1.4a4.86,4.86,0,0,1,0,.54C597.11,339.6,598.44,339.44,599,340Z" transform="translate(-465.46 -293.76)"/><path class="cls-58" d="M544.25,317a29.36,29.36,0,0,0-6.56-.1,4,4,0,0,0-3.46,2.58.87.87,0,0,1-.61.57c-1.49.53-2.93,1.17-4.36,1.82a1.18,1.18,0,0,1-1,.07c-.62-.49-1.25-1-1-1.92,1.27-.95,2.88-1.19,4.24-2,.75-.22.57-.9.71-1.43.78-3.05,1.77-6,4.27-8.14,0,.37.12.82-.19,1.07-1.19.94-.21,1.45.39,2,1.38,1.26,2.81,2.45,4.17,3.73a2.85,2.85,0,0,0,2.3,1C543.69,316.21,544.17,316.33,544.25,317Z" transform="translate(-465.46 -293.76)"/><path class="cls-59" d="M579,340.51c-.23-.21-.39-.51-.76-.49-.75-1-1.29-2.12-.48-3.39A2.06,2.06,0,0,1,581,336c.68.52,1.25.93,2.07.36a.71.71,0,0,1,.36-.08c1,0,3.41,1.92,3.65,2.93a1.17,1.17,0,0,0,.2.31c.62,1.38,0,2.56-.65,3.72a6.12,6.12,0,0,0-.6,1.2,2.57,2.57,0,0,1-4,.82h0c-1.2-.93-.28-1.76.13-2.71-.3-.18-.93.2-.94-.14C581.16,340.9,579.77,341.09,579,340.51Z" transform="translate(-465.46 -293.76)"/><path class="cls-60" d="M586.25,343a7.33,7.33,0,0,0,1-3.51c.36-.35.36-.85.54-1.27a25.24,25.24,0,0,1,6.71,5.77,31.9,31.9,0,0,1,2.74,4.74c-.22.64-.78.63-1.3.64s-1.29,0-1.93,0a1.64,1.64,0,0,1-1.11-.73c-1.52-1.83-3.3-3-5.82-2.42a1.18,1.18,0,0,1-.61-.09,1.33,1.33,0,0,1-.61-1.78A6,6,0,0,0,586.25,343Z" transform="translate(-465.46 -293.76)"/><path class="cls-61" d="M563,345.25c1.37,2.2,1.89,4.75,2.9,7.1,1.11,2.58,2,5.27,3.76,7.52,1.26,1.58,2.62,2.06,4.46,1.28a8,8,0,0,0,3.13-2.15.4.4,0,0,1,.33-.11,1.42,1.42,0,0,1,1,1c-.94,2-2.78,2.93-4.7,3.72-2.21.81-4,.05-5.52-1.55a25.8,25.8,0,0,1-2.56-4.81,2,2,0,0,0-1-1.17,1.74,1.74,0,0,1-1-2.28,4.49,4.49,0,0,0,.09-2.33,1.39,1.39,0,0,1,.08-.9,20.22,20.22,0,0,0-.78-3.71A5.23,5.23,0,0,1,563,345.25Z" transform="translate(-465.46 -293.76)"/><path class="cls-62" d="M555.79,309.24c2.92,0,5.78.66,8.69.81-.69,1.31-1.82,2.36-2.11,3.9a14.63,14.63,0,0,0-.13,2c0,.25,0,.54-.31.62s-.42-.18-.61-.34a57.22,57.22,0,0,0-5.68-4.87c-.21-.13-.47-.27-.55-.47-.18-.41-.82-.62-.61-1.14S555.3,309.27,555.79,309.24Z" transform="translate(-465.46 -293.76)"/><path class="cls-63" d="M541.25,338.68l-.75,0c-.41-.78-.41-1.7-.79-2.49a29.27,29.27,0,0,0,7-2.52,16.4,16.4,0,0,0,6.78-6.4,8,8,0,0,1-.51,2.91c-.53,2.11-2.07,3.44-3.61,4.79A19.38,19.38,0,0,1,541.25,338.68Z" transform="translate(-465.46 -293.76)"/><path class="cls-64" d="M567.09,327.77c-2.46-.19-4.69-.34-6.91-.56-.54,0-1.24-.1-1.17-1s.53-1,1.28-1c2.52.14,5,.42,7.52.74.57.07,1,.13.9.84s-.25,1.18-1.11.95A1.41,1.41,0,0,0,567.09,327.77Z" transform="translate(-465.46 -293.76)"/><path class="cls-65" d="M565.94,331.24l-6.92-.73c-.4-.05-1.08.17-.92-.6.11-.58,0-1.52,1-1.38,1.81.26,3.62.39,5.43.57.57.06,1.14.14,1.72.16s1.23-.06,1.26.49a1.55,1.55,0,0,1-1.14,1.46A1.16,1.16,0,0,1,565.94,331.24Z" transform="translate(-465.46 -293.76)"/><path class="cls-66" d="M541.25,338.68a1.37,1.37,0,0,1,.72-.45,28.42,28.42,0,0,0,7.28-3.5c.66,0,1,.25.7,1l-.45.38A12.16,12.16,0,0,1,541.25,338.68Z" transform="translate(-465.46 -293.76)"/><path class="cls-57" d="M590.42,328c1.05.18,2.11.35,3.15.55.35.07.81.13.78.62a.84.84,0,0,1-.82.9c-1.25.13-2.51.3-3.77.46Z" transform="translate(-465.46 -293.76)"/><path class="cls-67" d="M564,350.53l.25.73c-.43.34-.88.16-1.3,0a17.23,17.23,0,0,0-9.2-.41A3.62,3.62,0,0,1,552,351c-.25-.16-.55-.31-.2-.66l1.94-.57A19.61,19.61,0,0,1,564,350.53Z" transform="translate(-465.46 -293.76)"/><path class="cls-68" d="M550,335.71c.07-.54-.4-.7-.7-1a19,19,0,0,0,3.71-4.51C552.77,332.5,551.43,334.14,550,335.71Z" transform="translate(-465.46 -293.76)"/><path class="cls-15" d="M577.47,359l-.23,0c-1.58-1.47-2.42-3.43-3.49-5.24a5.17,5.17,0,0,1,3-3.7c1.4-1.24,3.17-1.77,4.79-2.57,1.68-.49,3.38-.89,5-1.46,2.93-.94,5,.28,6.76,2.54a9.1,9.1,0,0,0,.69.7,5.41,5.41,0,0,1,2.19,4.26,2.44,2.44,0,0,1-1.41,1.15c-.78.32-.87.81-.64,1.58a28.94,28.94,0,0,1,1.29,5.67.71.71,0,0,1-.15.33,60.7,60.7,0,0,1,.28,8c.43.64.42,1.18-.37,1.53a17.49,17.49,0,0,1-7.92,2.48c-1.28-.37-2.53-.82-3.77-1.29a6,6,0,0,1-3.81-4.86,29.39,29.39,0,0,1,.37-11.31C579.31,357.56,578.74,358.66,577.47,359Z" transform="translate(-465.46 -293.76)"/><path class="cls-69" d="M574,363.25a11.79,11.79,0,0,0,4.49-3.52c.11-.68.4-.67.75-.15a1.75,1.75,0,0,1,.13,1.09A53.23,53.23,0,0,1,577,374.5l-2.46,6a.87.87,0,0,1-.78-1c.09-1.92-.88-3.61-1.22-5.44a49.64,49.64,0,0,0-1.06-5.1C573.12,367.42,572.87,365,574,363.25Z" transform="translate(-465.46 -293.76)"/><path class="cls-70" d="M597.51,368.28c.26-.55.47-1.13.77-1.65.75-1.27,1.64-1.44,3-.63a1.38,1.38,0,0,1,.13,1.2c-1.09,3.62-1.07,7.38-1.43,11.09a72.75,72.75,0,0,1-1.21,7.76,1.75,1.75,0,0,1-.59,1.19c-.91.35-1.21-.53-1.75-.9a7.44,7.44,0,0,1-2.4-2.95l0-.18c.3-2.2.59-4.4.89-6.6.34-.9.77-.22,1.14-.05s.84,1,1.32.67,0-1.07-.16-1.6a18.23,18.23,0,0,1-.17-6.42A1.07,1.07,0,0,1,597.51,368.28Z" transform="translate(-465.46 -293.76)"/><path class="cls-71" d="M577,374.5a2.65,2.65,0,0,1,.07-1.92,56.33,56.33,0,0,0,1.9-12.23c0-.69,0-.69-.49-.62-.36-.2-.8-.3-1-.71.92-1.22,2.2-2.09,3.09-3.37-.17,1.61-.48,3.13-.65,4.67a25.52,25.52,0,0,0,.21,7.9,5.67,5.67,0,0,0,4.18,4.62c1,.31,2.28.3,2.94,1.41a31.58,31.58,0,0,1-7.65.12C578.73,374.33,577.83,373.75,577,374.5Z" transform="translate(-465.46 -293.76)"/><path class="cls-72" d="M592.69,392.83c-.23-3.29.64-6.44,1.26-9.62l.09.1a8.09,8.09,0,0,0,2.44,3.09c1.78,1.48,3.07,3.22,2.62,5.69a9.34,9.34,0,0,1-2.58,4.46c-.65,0-.6-.58-.67-1a3.8,3.8,0,0,0-.31-1.32.86.86,0,0,0-1.34-.38c-.44.27-.89.94-1.38.61S592.62,393.39,592.69,392.83Z" transform="translate(-465.46 -293.76)"/><path class="cls-73" d="M592.69,392.83l.09,1.36c.44.13.56-.27.79-.46.46-.35.9-.87,1.52-.61a2,2,0,0,1,1.15,1.66c.08.56-.15,1.16.15,1.71a.6.6,0,0,1,.54.29,6.48,6.48,0,0,1,.1,3.52,3.23,3.23,0,0,0,0,1.2c-.53,1.58-1.81,2.59-2.89,3.73a4.42,4.42,0,0,1-2.41,1.75c0-.52-.18-1.07.21-1.54,1.28-1.56,1.3-3.39,1-5.25a4.74,4.74,0,0,1,.41-3.25,4.24,4.24,0,0,0-.41,3.14,8.55,8.55,0,0,1-.58,4.87c-.07.19-.14.41-.42.29Z" transform="translate(-465.46 -293.76)"/><path class="cls-74" d="M597.51,368.28c-.39,2.8-.74,5.58.41,8.32.18.41.35,1.06-.13,1.37s-.93-.15-1.3-.45a11.81,11.81,0,0,1-1.08-1c-.29-.31-.41,0-.57.13.11-1.62.22-3.23.32-4.84a3.15,3.15,0,0,0,.37-1.53c.31-.35.2-.79.22-1.2C595.83,367.79,596.37,367.54,597.51,368.28Z" transform="translate(-465.46 -293.76)"/><path class="cls-75" d="M591.73,407a17.36,17.36,0,0,0,5-5.26,9.73,9.73,0,0,1,1.12-2.85c.17-.32.38-.75.82-.62s.4.62.27,1c-.52,1.44-1,2.91-2.44,3.76-1.39,1.64-2.7,3.38-4.75,4.28Z" transform="translate(-465.46 -293.76)"/><path class="cls-76" d="M592,405.24a7.75,7.75,0,0,0,.83-5,4.61,4.61,0,0,1,1.48-4.72c.21.52-.18.68-.34.93a4.46,4.46,0,0,0-.81,3.52,8.92,8.92,0,0,1-.77,5.58c-.23.5-.35.3-.43-.08A1.42,1.42,0,0,1,592,405.24Z" transform="translate(-465.46 -293.76)"/><path class="cls-77" d="M562.94,305c.45-.52,1.48-.93.34-1.75l5.12.48a1.34,1.34,0,0,0,1.63-1,.59.59,0,0,1,.92,0c-1.2,3.12-.9,3.35-4.48,2.75C565.3,305.33,564.12,305.2,562.94,305Z" transform="translate(-465.46 -293.76)"/><path class="cls-78" d="M571,302.77l-.92,0c.37-.87.77-1.72,1.09-2.6a.93.93,0,0,1,1.1-.71Z" transform="translate(-465.46 -293.76)"/><path class="cls-78" d="M572.24,299.27c-.73-.59-.56-1.18,0-1.78C572.11,298.09,572.71,298.67,572.24,299.27Z" transform="translate(-465.46 -293.76)"/><path class="cls-79" d="M534,384.7l-5.5-.5c-.34-.73.24-1,.7-1.18,3.13-1,5.88-2.87,9.22-3.38a16.28,16.28,0,0,0,7.4-3.71,1.68,1.68,0,0,0,.82-1.81,1.85,1.85,0,0,1,.69-1.66c1.41-1.48,1.69-3.5,2.5-5.26a.65.65,0,0,0,0-.49c-.82-2.07,1-3.1,1.77-4.53A1.91,1.91,0,0,1,553.5,364c-.86,1.67-.23,3.54-.72,5.26a.51.51,0,0,0,.13.46,1.52,1.52,0,0,1,.83,1.85,6,6,0,0,1-1.14,3,5,5,0,0,0-1.35,2.26c1.23.05,1.75-1.32,3-1.3a6.26,6.26,0,0,1-2.2,4.31c-1.94,1.51-4.16,2.62-6.64,2.16-2.29-.43-4.17.31-6.16,1.13a23.09,23.09,0,0,1-3.84.9A2,2,0,0,0,534,384.7Z" transform="translate(-465.46 -293.76)"/><path class="cls-80" d="M551.81,350.3a.43.43,0,0,0,.19.47c0,.57-.47.62-.83.78l-1.37.61c-1.77.78-3.12,1.9-3.33,4a2.65,2.65,0,0,0-.2.64c-.56.59-1.09,1.18-.25,2a2,2,0,0,1-.41,1,3.3,3.3,0,0,1-3.5,2,67.66,67.66,0,0,1-10.33-1.09,15.7,15.7,0,0,1-1.91-1.35c-.34-.29-.74-.63-.64-1.13s.7-.43,1.11-.57c3.16.07,6.28.55,9.42.84l.12,0c2.51.33,2.71.16,3.25-2.28.19-.88-.14-1.1-.92-1.16-2.93-.23-5.87-.54-8.8-.76-1-.07-2-.54-3-.12s-.7,1.77-1.16,2.62a1.68,1.68,0,0,1-.36.51c-1.22.49-1.59-.53-2.15-1.22a1.69,1.69,0,0,1-.1-.86,27.74,27.74,0,0,1,.85-3.49,3.34,3.34,0,0,1,4-2.48c1.25.17,2.6-.08,3.71.78,3.36.35,6.73.69,10.09,1.06a1.4,1.4,0,0,1,1.32,1c.19.9.56.55,1,.25A16.58,16.58,0,0,1,551.81,350.3Z" transform="translate(-465.46 -293.76)"/><path class="cls-81" d="M559.05,373.93c2.12-.54,4.21.05,6.31.13,1.37.05,2.72.28,4.09.42,1.21.12,1.6.62,1.32,1.81s-.6,2.33-.91,3.5a1.8,1.8,0,0,1-2.16,1.41c-2.77-.27-5.52-.67-8.31-.72-1.3,0-1.85-.83-1.54-2.1a13.7,13.7,0,0,0,.69-3.65C558.8,374.52,558.65,374.05,559.05,373.93Z" transform="translate(-465.46 -293.76)"/><path class="cls-82" d="M574,363.25a21.37,21.37,0,0,1-1.06,4.52c-.18.69-.88.91-1.45,1.22-2.66-.28-5.32-.48-8-.87-2.89-.42-2.88-.5-2.09-3.32a1.69,1.69,0,0,0,.07-1.32c.07-.33-.1-.68.1-1a2.62,2.62,0,0,1,3.07-1.54c.86.15,1.75.06,2.61.24a2,2,0,0,1,1.2.59,6.67,6.67,0,0,1,1,.65,3.44,3.44,0,0,0,3.62.91A4,4,0,0,1,574,363.25Z" transform="translate(-465.46 -293.76)"/><path class="cls-83" d="M559.05,373.93c-.07.33,0,.74-.51.8a19.23,19.23,0,0,0-4.36-10.23,3.67,3.67,0,0,0-.68-.54l-1.73-1.76c-.74,0-1.19-.57-1.76-.87a19.29,19.29,0,0,0-3.55-1.55c-.27-.14-.57-.24-.7-.55s-.07-.46.26-.5c5.11,1.15,8.51,4.44,11,8.85A15,15,0,0,1,559.05,373.93Z" transform="translate(-465.46 -293.76)"/><path class="cls-84" d="M561.75,362.73c0,.27,0,.57-.24.75-3.34-5-8.12-7-14-6.77l-1.24.07a.62.62,0,0,1-.27-.54,3.77,3.77,0,0,1,2.36-.66A17.46,17.46,0,0,1,561,361,2.06,2.06,0,0,1,561.75,362.73Z" transform="translate(-465.46 -293.76)"/><path class="cls-79" d="M553.35,383.49a3.18,3.18,0,0,1-.62-.06c-.24-.05-.51-.13-.59-.4a.54.54,0,0,1,.34-.6,15.15,15.15,0,0,0,3-2.23.86.86,0,0,1,1-.09c.33.2.25.59.17.91A3,3,0,0,1,553.35,383.49Z" transform="translate(-465.46 -293.76)"/><path class="cls-85" d="M519.25,353q4-5.53,8-11.06c.29-.4.63-.76,1-1.13.79.27,1.62.48,1.83,1.47a51.46,51.46,0,0,1-2.61,7.93c-.49,1.28-1.06,2.54-1.63,3.79a28.63,28.63,0,0,1-4.14,6.27,3,3,0,0,1-.93.8c-2,1.33-4.09,1-6.15.06a23.69,23.69,0,0,1-4.75-3.38c-1.3-1.26-1.51-1.19-2.06.56-.4,2.19-.89,4.37-1.13,6.6-.08.72-.28,1.4-1.17,1.53a17.37,17.37,0,0,1-9.72.1,19.81,19.81,0,0,1-5.5-3.11c-1-1.05.12-2,.17-3a44.39,44.39,0,0,1,3.39-7.5c-.16-.56.22-.93.46-1.35a47.11,47.11,0,0,1,3.27-4.29c.66-.47.77-1.53,1.78-1.6a5.25,5.25,0,0,0,1.92,2.19c3,1.54,5.22,1.15,7.41-1.37.29-.34.49-.79,1-.92a4.36,4.36,0,0,1,2.52,1.69c.76.93,1.33.77,2.16.15,2-1.51,4-2.94,6-4.4.5-.36,1-.95,1.76-.57q-2.73,3.8-5.45,7.58a2.32,2.32,0,0,0-.64,1.82c.25.82,1,1.24,1.49,1.91.25.36.56.26.8-.05A2.69,2.69,0,0,1,519.25,353Z" transform="translate(-465.46 -293.76)"/><path class="cls-86" d="M516.5,377.25a41.56,41.56,0,0,0-8,2.74c.56-2.71,0-5.36-.5-8a4.53,4.53,0,0,1,2.57-1.36,41.63,41.63,0,0,0,5.33-2,3.85,3.85,0,0,1,2.55,2.23,23,23,0,0,1-1.6,6.37A.3.3,0,0,1,516.5,377.25Z" transform="translate(-465.46 -293.76)"/><path class="cls-87" d="M516,368.8c-.84,1.15-2.26,1.11-3.41,1.6-1.47.64-3,1.07-4.55,1.59l-1.53-4.42c-.18-.5-.36-1-1-1.11,1.2-1,.68-2.4,1-3.6.39-1.6.54-3.26,1.06-4.84.6-.14.76.39,1,.72.63.81,1.11,1.74,1.72,2.57a69,69,0,0,0,5.11,6.33C515.64,368,516,368.29,516,368.8Z" transform="translate(-465.46 -293.76)"/><path class="cls-88" d="M495.28,379.23l2.22-5.53a29.27,29.27,0,0,0,3.53,3.95A50.9,50.9,0,0,1,495.28,379.23Z" transform="translate(-465.46 -293.76)"/><path class="cls-42" d="M597,337.75a16.92,16.92,0,0,1,1-3.25,9.61,9.61,0,0,0,1-2.26,1.36,1.36,0,0,1,1.68-1c3.27.4,6.55.73,9.83,1.09,2,.59,2,.59,1,2.68a3,3,0,0,0-1,1.4,6.15,6.15,0,0,1-.44,1c-.27.47-.57,1-1.23.71s-.27-.85-.08-1.3c-.26.47-.37,1.12-1.09,1.13-.48,0-.62-.31-.6-.77-.24.33-.42.78-.9.71s-.66-.45-.62-.95c-.26.42-.49.86-1.08.76-.65-.84-.59-1.3.17-2.37-.22.32-.86.66-.65,1.5.13.5-.35.72-.8.73-.84,0-1.05-.53-1-1.24-.71,1.2-1.15,1.21-1.89.06C599.13,337.84,598.19,338.23,597,337.75Z" transform="translate(-465.46 -293.76)"/><path class="cls-10" d="M527.26,320c.17.69.93,1.06,1,1.81a.4.4,0,0,1,0,.34,4,4,0,0,1-1.16,1.09,7.77,7.77,0,0,0-3.09,4.6,1.62,1.62,0,0,0,.1,1.39,2.2,2.2,0,0,1,.26,1.51c-.77.92-1.95,1.19-2.88,1.84a.64.64,0,0,1-.5-.23,3.59,3.59,0,0,1-.76-2.61,7.91,7.91,0,0,1,.21-2.74,12.34,12.34,0,0,1,3.28-4.78L527,320Z" transform="translate(-465.46 -293.76)"/><path class="cls-89" d="M516.5,377.25l.15,0a1.55,1.55,0,0,1,1.45-.51,11.67,11.67,0,0,0,3.73-.06,1.64,1.64,0,0,1,1.22.12c1,.7,1.88.29,2.83,0a30.28,30.28,0,0,0,13.32-8.9,2.67,2.67,0,0,0,.78-1.65c0-1.31.45-1.85,1.73-2a2.78,2.78,0,0,0,2.42-1.85c.34-.81.88-1.51,1.23-2.31.24-.56.59-.78,1.17-.52a11.21,11.21,0,0,1,5.24,2.72c-.52,1-.73,2.14-1.69,2.86-.26.19-.38.51-.1.75.82.72.34,1.45,0,2.15-.84,1.83-1.16,3.94-2.85,5.32a.5.5,0,0,0-.16.45c.79,2.1-1,2.73-2.17,3.47-1.87,1.2-3.79,2.55-6.05,2.8-3.46.36-6.23,2.48-9.46,3.36a1,1,0,0,0-.81.84c-2.09-.18-4.19-.31-6.27-.56a11,11,0,0,0-2-.11c-1.89-.39-3.46-1.12-4.1-3.21C515.8,379.18,516.39,378.27,516.5,377.25Z" transform="translate(-465.46 -293.76)"/><path class="cls-90" d="M497.81,347.53c-1.33,1.82-2.8,3.54-4,5.46l-1.28,0a2.85,2.85,0,0,0-1.58-.26c-3.31.11-6.6.4-9.89.72-.83.08-1.67,0-2.5,0l.87-2.79a.29.29,0,0,1,.11-.43A2.14,2.14,0,0,0,480,349a1,1,0,0,1,.71-1.08c2.37-.37,4.78-.35,7.16-.64a56,56,0,0,1,8.19-.29C496.71,347,497.37,347,497.81,347.53Z" transform="translate(-465.46 -293.76)"/><path class="cls-91" d="M479.55,350.3l-.11.43a45.86,45.86,0,0,1-3.93-4.75,3,3,0,0,0-1.79-1.24,4.94,4.94,0,0,1-1.92-.88,7.6,7.6,0,0,0-2.55-1.13c1.8-.49,2.94,1.08,4.81,1.49-1.74-2.08-2.42-4.52-4.08-6.37-.29-.32-.88-.6-.6-1.11s.8.2,1.22,0c0-1.14-.42-2.33.45-3.45.31.62-.08,1.07-.06,1.56a5.77,5.77,0,0,0,1.16,3.7,4.54,4.54,0,0,1,1.14,2.59c.16,1.77,1.29,3,2.56,4.34.41-2.39,1.2-4.37,3.24-5.75.11.7-.34.88-.61,1.15a7.4,7.4,0,0,0-1.58,2.37,3.77,3.77,0,0,0,.61,4.37C478.27,348.45,478.87,349.41,479.55,350.3Z" transform="translate(-465.46 -293.76)"/><path class="cls-91" d="M480.56,348.28,480,349a10.38,10.38,0,0,1-1.1-.57c-.87-.6-.86-1.32-.2-2.11.84-1,1.06-2.4,2-3.39.32-.35.41-.95,1.05-.94a10.24,10.24,0,0,1,1.32,2.23A8.17,8.17,0,0,1,480.56,348.28Z" transform="translate(-465.46 -293.76)"/><path class="cls-92" d="M488,333.49c.24,1.67.48,3.34.73,5-.59.35-.47-.16-.51-.43-.33-2.09-.65-4.17-1-6.26,0-.24,0-.58-.19-.69-1.55-1.14-1.89-3.18-3.33-4.4,1.76.41,1.81,2.46,3.32,3.5a12.78,12.78,0,0,1,1.36-9.42,1.47,1.47,0,0,1,1.28-.9c-2.87,3.77-2.77,7.85-1.92,12.12a21.68,21.68,0,0,1,2.4-2.17,3.86,3.86,0,0,1,2.9-.91C490.92,330,488.52,330.65,488,333.49Z" transform="translate(-465.46 -293.76)"/><path class="cls-93" d="M487.5,339.75a11,11,0,0,1-6.25-3.16,3.08,3.08,0,0,1-1.12-2.44,9.21,9.21,0,0,0,5.84,4.64C486.52,339,487.16,339.15,487.5,339.75Z" transform="translate(-465.46 -293.76)"/><path class="cls-94" d="M596.72,396.77l-.33-.28c.5-.81,1-1.6,1.51-2.41,1.48-2.47,1.21-4.54-.81-6.62-.78-.79-1.59-1.57-2.34-2.4a1.89,1.89,0,0,1-.71-1.75,34.44,34.44,0,0,0,3.73,3.91,3.25,3.25,0,0,1,1.92,2.79,2.27,2.27,0,0,1,.27-1.33,101.74,101.74,0,0,0,2.77-10,1.69,1.69,0,0,0,0-1.11c-1-2.11-.67-4.52-1.57-6.65-.15-.34-.27-.77.16-1s.73.05,1,.34a3.38,3.38,0,0,1,.77,2.07c.13,1,.33,2,.53,3.27a19.64,19.64,0,0,1,3.76-7.58c.37-.44.67-1,1.35-1,1.08-.82,2-1.9,3.34-2.34.24-.08.53-.2.67.07s-.16.39-.38.49c-3,1.45-4.83,4-6.3,6.82a24,24,0,0,0-2.37,7.39,10.82,10.82,0,0,1,4.41-1.61c1.45-.13,3-.46,4.24.67a25.88,25.88,0,0,0-4.13-.06,9.2,9.2,0,0,0-4.32,1.78,1.3,1.3,0,0,0-.67,1c.21,1.65-.49,3.13-.86,4.68-.23.91-.62,1.78-.84,2.73.62.17,1.33-.52,1.83.24a.87.87,0,0,1,0,.36c-2.12.86-3.24,2.69-4.38,4.5v0a6.23,6.23,0,0,1-1.37,2.54C597.41,396.6,597.17,396.93,596.72,396.77Z" transform="translate(-465.46 -293.76)"/><path class="cls-95" d="M608.74,367a24.38,24.38,0,0,0-3.14,4.44c-.79,1.63-1.31,3.36-2,5.07a12.52,12.52,0,0,1-.87-4.06,8.54,8.54,0,0,0,.9-2.66c.18-.53.21-1.16.85-1.41,1.18,0,1.14-.89,1.23-1.63a5.35,5.35,0,0,1,1.3-3.26C608.29,364.36,608.35,365.77,608.74,367Z" transform="translate(-465.46 -293.76)"/><path class="cls-96" d="M603.26,389c-.82-.46-1.47.22-2.35.38.79-2.77,1.55-5.47,2.32-8.17.55,1.07,1.75,1.43,2.51,2.26a.63.63,0,0,1,.08.59c-.31,1,.08,1.49,1,1.73a1.08,1.08,0,0,1,.54,1.38,1.68,1.68,0,0,1-1.51.94c-.83.08-1.13-.51-1.31-1.2C603.93,387.59,604.23,388.68,603.26,389Z" transform="translate(-465.46 -293.76)"/><path class="cls-97" d="M606.65,386c-1.55-.06-1.8-.75-.91-2.51.93-1.06,2.5-.81,3.5-1.73L611,383a.52.52,0,0,1-.11.57,13.33,13.33,0,0,1-3.64,2.5A.67.67,0,0,1,606.65,386Z" transform="translate(-465.46 -293.76)"/><path class="cls-98" d="M614.23,382.19c.37.36.23.75.09,1.16s-.31,1-.89,1.08a.49.49,0,0,1-.59-.33,1.34,1.34,0,0,1,.21-1.5,3.79,3.79,0,0,1,.39-.31Z" transform="translate(-465.46 -293.76)"/><path class="cls-99" d="M520.25,329.75l1,2.49c-.79.95-.52,1.8.18,2.67a10.39,10.39,0,0,0,2.75,2.28c.39.24,1.14.55.23,1.13a16.9,16.9,0,0,1-3.48.18c-2,.1-4.06-.36-6.1-.06a2.14,2.14,0,0,1-1.84-.58,1.73,1.73,0,0,1-.22-1.42,4.75,4.75,0,0,0-.07-1.84c-.33-1.21-.75-1.51-2-1.43a.79.79,0,0,1-.58-.13c-.73-.49-.88-1.37-1.34-2,3.11,0,6.17.63,9.26.83,1.67.11,1.66.27,2-1.41A1,1,0,0,1,520.25,329.75Z" transform="translate(-465.46 -293.76)"/><path class="cls-100" d="M601.48,394.49a16.72,16.72,0,0,0,4.65-2.82,2.82,2.82,0,0,1,3.62-.16c.12.79-.51,1.08-1,1.42-1.46,1-3,1.93-4.45,3-.31.22-.81.29-.8.84l-2.22.74a6.21,6.21,0,0,0-.08-2.72C601.13,394.53,601.25,394.46,601.48,394.49Z" transform="translate(-465.46 -293.76)"/><path class="cls-101" d="M596.72,396.77c1-.83,1.37-2.1,2.27-3,1.65,3.33.47,6.24-1.32,9.08-.39.62-.76.47-1.19.11.81-1.45,1.95-2.73,2.28-4.82-1,1.31-1.15,2.65-2,3.57C596.4,400.07,597,398.42,596.72,396.77Z" transform="translate(-465.46 -293.76)"/><path class="cls-102" d="M603.5,396.76c-1-.13-.45-.47-.08-.73,1.71-1.15,3.43-2.3,5.16-3.43a3.93,3.93,0,0,0,1.17-1.09c.52.3,1.17.42,1.52,1a26.26,26.26,0,0,1-5.6,4.81A3.47,3.47,0,0,0,603.5,396.76Z" transform="translate(-465.46 -293.76)"/><path class="cls-103" d="M597.47,408.66l-.77-.38c-.76-.46-1.5,0-2.24.06-.9,0-1.89.61-2.68-.31a10.9,10.9,0,0,0,5.77-1.23,5.07,5.07,0,0,1,2.78-.54,6.51,6.51,0,0,0,4.81-1.29,1.19,1.19,0,0,1,.33-.18,2.74,2.74,0,0,1,.52,0,6.61,6.61,0,0,1-5.13,1.93,5.65,5.65,0,0,0-4,1,29.3,29.3,0,0,0,5.87,2.72c2.1.59,4-1.09,6-.77a18.13,18.13,0,0,0-3.25,1.05,5.86,5.86,0,0,1-4.48-.37C599.85,409.84,598.67,409.24,597.47,408.66Z" transform="translate(-465.46 -293.76)"/><path class="cls-104" d="M601.48,394.49l-.28.29c-.62-.59-1.21-1.26-2.21-1,.66-2.21,1.67-4.08,4.22-4.52.59.92,0,1.57-.5,2.25Z" transform="translate(-465.46 -293.76)"/><path class="cls-105" d="M603.24,400.49l1.23,2a6,6,0,0,1-2.87,1.39,1.4,1.4,0,0,1-1.57-.73c-.31-.71.17-1.19.72-1.53A9.71,9.71,0,0,1,603.24,400.49Z" transform="translate(-465.46 -293.76)"/><path class="cls-106" d="M604.51,368.41c-.27,1-.53,2.09-.84,3.12-.13.45-.18,1-.91,1a3.42,3.42,0,0,0-1.34-2.55c-.16.83.5,1.22.57,1.8a12.68,12.68,0,0,0,.54,3.42c1,2.18.54,4.2,0,6.34a72.56,72.56,0,0,1-2.91,9.35,7.55,7.55,0,0,0-1.81-3.63c.8-.54.54-1.45.66-2.16a73.58,73.58,0,0,0,1.35-11.67,29,29,0,0,1,1.46-7.39C602.42,366.68,603.23,367.86,604.51,368.41Z" transform="translate(-465.46 -293.76)"/><path class="cls-107" d="M595.25,362.26l-.07-.26c0-1.72.82-3.28,1-5,.55-1.83,1.24-2.15,2.8-1.3a1.92,1.92,0,0,1,.26,1,15.45,15.45,0,0,1-.45,3.95c-.39,1.7-.91,2-2.67,1.64A6.25,6.25,0,0,0,595.25,362.26Z" transform="translate(-465.46 -293.76)"/><path class="cls-108" d="M599,355.73a2.09,2.09,0,0,1-.25,0c-1.22-.19-2.13.06-2.2,1.53-.81-1.16-.6-2.48-.56-3.76-.25-1.61-1.33-2.83-2-4.24a1.08,1.08,0,0,1,1.21-.35,2.83,2.83,0,0,0,2-.17L598,350C598.29,351.91,599.07,353.74,599,355.73Z" transform="translate(-465.46 -293.76)"/><path class="cls-109" d="M611.25,336.21c.49.53,0,1,0,1.55a21.21,21.21,0,0,0-1,2.38c-.31,1.12-1,1.2-2,1.06-1.74-.26-3.49-.48-5.24-.72,0-1.05,1-1,1.55-1.49a12.2,12.2,0,0,1,3.31.18,1.76,1.76,0,0,0,2.16-1.3C610.3,337.24,610.26,336.33,611.25,336.21Z" transform="translate(-465.46 -293.76)"/><path class="cls-110" d="M604.51,339.29c-.34.6-1.2.54-1.5,1.19l-4-.47c-2,0-2,0-2-1.75,2.17-.4,4.28.16,6.42.39A1.88,1.88,0,0,1,604.51,339.29Z" transform="translate(-465.46 -293.76)"/><path d="M509.69,345.77c-2.63,4-5.68,4.44-9.2,2.19a2.87,2.87,0,0,1-1.41-2,2.19,2.19,0,0,1,2.67-2.26,7.23,7.23,0,0,0,.94-.26c1.5-.58,1.72-1.17.62-2.34-1.49-1.59-1.21-3.19-.32-4.88a4.51,4.51,0,0,1,4.52-1.36c1.63.42,2.27,1.68,1.78,3.55-.13.51-.45,1-.29,1.54,0,1.08-.27,2.18.33,3.19C509.68,344,510.55,344.77,509.69,345.77Z" transform="translate(-465.46 -293.76)"/><path class="cls-111" d="M510.09,333c1.67-.84,2.54-.43,3.05,1.4a6.89,6.89,0,0,1-.16,3,2.49,2.49,0,0,1-2.5,2.62,1.47,1.47,0,0,1-1.07-.5c-.09-.14-.2-.3-.15-.45a5.74,5.74,0,0,0-.63-4.54C509.33,334.28,509.63,333.59,510.09,333Z" transform="translate(-465.46 -293.76)"/><path class="cls-43" d="M508.63,334.6c1.71,1.35,1.43,3.06.87,4.82-.06.44-.25.72-.76.6a.65.65,0,0,1-.19-.8c.9-1.75.77-3.24-1-4.33A1,1,0,0,1,508.63,334.6Z" transform="translate(-465.46 -293.76)"/><path class="cls-112" d="M501.75,343.73c-1.14.45-2.33.84-2.67,2.26a3.35,3.35,0,0,1-1.27,1.54,91.88,91.88,0,0,0-14.26.69c-1,.11-2,0-3,.06a26.7,26.7,0,0,1,2.51-4c1.06-2.15,3.18-1.67,5-2a73.49,73.49,0,0,1,8.1-1,1.22,1.22,0,0,0,1.08-.71,24.33,24.33,0,0,1,3.94,2.31A1,1,0,0,1,501.75,343.73Z" transform="translate(-465.46 -293.76)"/><path class="cls-113" d="M564,298.76c.7-.41,1-1.18,1.51-1.74,1.68.83,3.71.52,5.59,1.6-1.52.65-2.42,1.85-3.91,2.08-.81.13-1.54.54-2.35-.07-.42-.32-1-.11-1.34.29s-.67.77-1.35.45Z" transform="translate(-465.46 -293.76)"/><path class="cls-114" d="M602.71,391.48l.5-2.25a.29.29,0,0,0,0-.2c.3-.82.59-1.63.9-2.44.09-.25.1-.69.45-.66s.38.49.36.8c-.06,1.12.49,1.29,1.4.95s1.09-.82.28-1.67a20,20,0,0,0,4.35-3c1.29,1.14,1.34,2.35,0,3.29A80.09,80.09,0,0,1,602.71,391.48Z" transform="translate(-465.46 -293.76)"/><path class="cls-115" d="M612.07,389.91c-.89,0-1.84,1.35-2.47.3s0-2,1.4-1.53C611.47,388.82,611.36,389.75,612.07,389.91Z" transform="translate(-465.46 -293.76)"/><path class="cls-116" d="M604.51,339.29c-.34-.1-.74,0-1-.29a3.38,3.38,0,0,0,1-1.47c.91-.17.62-1.42,1.47-1.66.44.58-.77,1.43.14,1.69.68.19.61-.93,1-1.33l.37-.31c.28.38.07.67,0,1s-.46.63.06.8.57-.22.71-.54l.65-1.48c.48.47,0,.87,0,1.28s-.49.75.08.94.56-.38.72-.69a8.73,8.73,0,0,0,.62-1.48,1,1,0,0,1,1.11-.76c-.08.42-.16.83-.23,1.25a11.08,11.08,0,0,0-1.1,2.46,1.52,1.52,0,0,1-1.85,1C607.05,339.47,605.77,339.41,604.51,339.29Z" transform="translate(-465.46 -293.76)"/><path class="cls-117" d="M608.64,400c.49.05.45.48.51.74.13.52-.22.75-.7.77a.58.58,0,0,1-.67-.58C607.75,400.31,608.33,400.25,608.64,400Z" transform="translate(-465.46 -293.76)"/><path class="cls-118" d="M510.46,339.82c1.47-.11,1.88-1.34,2.52-2.35a2.33,2.33,0,0,0,1.86.52c3.3-.32,6.61.22,9.91,0,.76-.33,1.18-.08,1.27.74a3.3,3.3,0,0,1-1.8,1.58c-1,.39-1.38,1.5-2.12,2.2-2.07,1-3.73,2.59-5.61,3.87-1,.65-1.89,1.34-2.81,2.05-.45.35-.84.38-1.15-.1-.72-1.12-1.91-1.7-2.84-2.57.21-1-.39-1.68-.73-2.48A16.93,16.93,0,0,1,510.46,339.82Z" transform="translate(-465.46 -293.76)"/><path class="cls-119" d="M534.52,334.75a18.91,18.91,0,0,1-5.35-.66,1.9,1.9,0,0,1-1.18-.6,1.23,1.23,0,0,1-.2-1.18c.66-2.83,1.47-5.62,2.15-8.44a1.81,1.81,0,0,1,.43-.76,13.73,13.73,0,0,1,5.83-1.72,1.15,1.15,0,0,1,1,.34h3.1c-1.71.95-3.16,1.65-4.08,3a1.85,1.85,0,0,1-.49,1.11c-1.7,2.49-2.39,5.14-1.17,8.05a1.63,1.63,0,0,1,.09.49A.78.78,0,0,1,534.52,334.75Z" transform="translate(-465.46 -293.76)"/><path class="cls-120" d="M534.49,334.49a6.23,6.23,0,0,1-.84-4.77,8.34,8.34,0,0,1,2.59-5c1.44,0,2.16,1.41,3.43,1.75.43.4.28.92.24,1.38a2.14,2.14,0,0,0,.37,1.5c.25.47.49.95.76,1.41.64,1.12.52,1.45-.71,2.09a25.08,25.08,0,0,0-4.63,1.44A1.68,1.68,0,0,1,534.49,334.49Z" transform="translate(-465.46 -293.76)"/><path class="cls-121" d="M530.52,323.27q-1.28,5.12-2.53,10.22l-1.48-.5a2.63,2.63,0,0,1-2.26-2.24c-.16-1-1.12-1.87-.52-3,.42.19.46-.23.62-.42a13.36,13.36,0,0,1,4.7-3.7C529.54,323.49,529.92,322.93,530.52,323.27Z" transform="translate(-465.46 -293.76)"/><path class="cls-122" d="M540,329.51c-.82-.93-.48-2-.32-3a3.7,3.7,0,0,1,5.83-1.61,2.44,2.44,0,0,1,.7,3.33,3.89,3.89,0,0,1-2.18,2.51c-1-.33-.22-1.52-.95-2.05-.22-.16.09-.87-.52-.94a1.87,1.87,0,0,0-1.57.58C540.61,328.68,540.61,329.35,540,329.51Z" transform="translate(-465.46 -293.76)"/><path class="cls-123" d="M539.71,336.23c1.12.56.91,1.54.79,2.49l-3,.6a1.75,1.75,0,0,1-1.19.61,14.82,14.82,0,0,1-4.31-.14,2.08,2.08,0,0,1-.59-2.07c.13-.54.43-.94,1-.9A32.8,32.8,0,0,0,539.71,336.23Z" transform="translate(-465.46 -293.76)"/><path class="cls-124" d="M543.5,319.25a9.79,9.79,0,0,1,4.68,1.86,4.69,4.69,0,0,1,1.84,5.54c-1.5-3.29-4.45-4.18-7.51-4.92A1.87,1.87,0,0,1,543.5,319.25Z" transform="translate(-465.46 -293.76)"/><path class="cls-125" d="M530.52,323.27l-1.31.7a3.55,3.55,0,0,1-1-2,.61.61,0,0,0,0-.19c2-.75,3.86-1.88,6-2.35,1.19-.06,2.31-.59,3.51-.47.48,1-.5,1.65-.47,2.53a1.17,1.17,0,0,1,0,.2A23.33,23.33,0,0,0,530.52,323.27Z" transform="translate(-465.46 -293.76)"/><path class="cls-126" d="M540,329.51c.27-.91.48-1.81,1.63-2.12,1.73-.48,2.06-.25,1.75,1.56.48,0,.5-.76,1.14-.63-.12.8-1.45,1.43-.49,2.41.1,2.08,0,2.25-2.33,2.76-.66-.06-1.42,0-1.46-1,.81-.27,1.29-.61.5-1.47A3,3,0,0,1,540,329.51Z" transform="translate(-465.46 -293.76)"/><path class="cls-127" d="M526,338.74a1.68,1.68,0,0,0-1.27-.74c-1.62-1-3.27-1.93-4.22-3.69-.63-1.16-.54-1.45.7-2.07l.27.26a25.56,25.56,0,0,1,4,2.75,1.45,1.45,0,0,0,.18.17c.62.46,1.9.16,1.94,1.08,0,.6-.82,1.25-1.28,1.87A3.68,3.68,0,0,1,526,338.74Z" transform="translate(-465.46 -293.76)"/><path class="cls-128" d="M537.27,321.53c-.53-.25-.36-.6-.17-1a4.74,4.74,0,0,0,.64-1.54,1,1,0,0,1,.24,0,15.1,15.1,0,0,1,3.8,0c.58.07,1.2-.1,1.72.28a6.6,6.6,0,0,0-1,2.48A35.33,35.33,0,0,0,537.27,321.53Z" transform="translate(-465.46 -293.76)"/><path class="cls-119" d="M525.5,335.25a8.51,8.51,0,0,1-4-2.75c.56-1.15,1.81-1.21,2.75-1.75a11.69,11.69,0,0,0,2.26,2.24A4.1,4.1,0,0,1,525.5,335.25Z" transform="translate(-465.46 -293.76)"/><path class="cls-55" d="M531.42,337.72a1.49,1.49,0,0,1,.36,1.71,2.79,2.79,0,0,1-2,2.79c-.31-.72-1.41-.53-1.59-1.4a15.71,15.71,0,0,1,0-1.82c.15-1,.44-1.1,1.1-.38C530.11,337,530.24,337,531.42,337.72Z" transform="translate(-465.46 -293.76)"/><path class="cls-129" d="M540.23,332.53c.34.54,1,.54,1.46,1a17.58,17.58,0,0,1-7.17,1.26l0-.26A16.43,16.43,0,0,1,540.23,332.53Z" transform="translate(-465.46 -293.76)"/><path class="cls-130" d="M519.25,353a8,8,0,0,1-1.45,2c-.53-1.14-1.71-1.77-1.79-3.09A3.7,3.7,0,0,0,519.25,353Z" transform="translate(-465.46 -293.76)"/><path class="cls-125" d="M541.78,319l-3.8,0A7,7,0,0,1,541.78,319Z" transform="translate(-465.46 -293.76)"/><path class="cls-131" d="M529.81,342.22c.62-1,1.69-1.59,2-2.79a26.79,26.79,0,0,0,5.73-.11c.68,1.3,2.13,1.73,3.09,2.73.21.53-.52.8-.4,1.3.62.32,1-.61,1.55-.31.33,1.88.33,1.9-1.59,2.52a23.11,23.11,0,0,0-3.79,1.49c-2,1.07-2,1-1.11,2.92-1.28-.12-2.56-.18-3.82-.38a2.84,2.84,0,0,0-3.45,2.08c-.37,1.19-.68,2.39-1,3.58-.88,0-1.17-.72-1.58-1.29A106.23,106.23,0,0,0,529.81,342.22Z" transform="translate(-465.46 -293.76)"/><path class="cls-132" d="M541.75,343c-.42,1-1.34.69-2.08.83.11-.71.12-1.47.93-1.82A1.51,1.51,0,0,1,541.75,343Z" transform="translate(-465.46 -293.76)"/><path class="cls-133" d="M547.75,344.61a1.45,1.45,0,0,1,1.15-1.87c.2-.07.93.62.87.79A1.65,1.65,0,0,1,547.75,344.61Z" transform="translate(-465.46 -293.76)"/><path class="cls-134" d="M546,343c-.57.93-1.2,1.5-2.38,1.12,1-.14-.68-1,.62-1.48C545.26,342.23,545.29,343.35,546,343Z" transform="translate(-465.46 -293.76)"/><path class="cls-135" d="M576.7,350.06a23.49,23.49,0,0,0-3,3.7c-.41.66-.84,1.33-1.25,2-.23.38-.48.63-.82.11-.58-.9-1.16-1.81-1.72-2.73-.34-.57.09-.65.5-.61.57,0,1.14.16,1.72.21.35,0,.88.1.89-.41s-.51-.29-.81-.32a4.12,4.12,0,0,0-1,0c-1.85.23-2.56-1.23-3.5-2.34-.2-.24,0-.36.22-.41Z" transform="translate(-465.46 -293.76)"/><path class="cls-136" d="M579,340.51c.77.39,1.54,0,2.45,0a4.42,4.42,0,0,0-.19,1.85c.28.16.35-.11.48-.22.37-.29.81-.67,1.18-.18s-.18.69-.5.95a2,2,0,0,0-.43,2.39c-1.76,0-2.64-1-2.74-3.05A3.66,3.66,0,0,0,579,340.51Z" transform="translate(-465.46 -293.76)"/><path class="cls-137" d="M586.52,346a6.18,6.18,0,0,1-5,1.46,2.81,2.81,0,0,0,.5-2.24,3.65,3.65,0,0,0,3.17-.27c.8-.41.36-1.51,1.09-2,.36.36,0,.71-.08,1A1.78,1.78,0,0,0,586.52,346Z" transform="translate(-465.46 -293.76)"/><path class="cls-29" d="M604.51,337.53c.5,1.08.08,1.51-1,1.47a43,43,0,0,1-6.5-.74v-.51c1.22-.19,2.51-.25,2.85-1.84.07-.32.4-.41.71-.36s.41.33.32.65-.26.61.15.73.58-.21.7-.53a2.27,2.27,0,0,1,.77-1.27c.46.49,0,.94,0,1.39s0,.62.38.69a1,1,0,0,0,.72,0c.51-.34-.14-.38-.19-.59-.1-.45.19-.78.43-1.11s1-.17.64-.93c-.07-.17.37-.31.61-.24.54.18.06.41,0,.64C604.94,335.81,603.8,336.47,604.51,337.53Z" transform="translate(-465.46 -293.76)"/><path class="cls-138" d="M561.75,362.73a15.88,15.88,0,0,0-14.88-6.54c-.29,0-.58,0-.87.05.29-3,2.6-4.06,5-5,.34-.13.67-.3,1-.45,4.13-1.08,8.23-1.29,12.24.49.54.95.15,1.88-.09,2.78a1.21,1.21,0,0,0,.94,1.7c.28.08.6.07.72.4.69,2,1.84,3.73,2.68,5.63a23.48,23.48,0,0,1-3.58-.37A2.7,2.7,0,0,0,561.75,362.73Z" transform="translate(-465.46 -293.76)"/><path class="cls-55" d="M596,353.51c.75,1.17.43,2.49.56,3.76a14.5,14.5,0,0,1-1.35,4.73c-.57-2.15-1.12-4.31-1.72-6.45-.15-.52,0-.71.45-.91A22.84,22.84,0,0,0,596,353.51Z" transform="translate(-465.46 -293.76)"/><path class="cls-139" d="M525.4,354c.87,0,1,.93,1.58,1.29,0,.25,0,.5,0,.75a4.52,4.52,0,0,1,0,1.72c-.06,1.24.28,1.65,1.5,1.82a11.74,11.74,0,0,1,3.26.71c2.07.45,4.19.47,6.29.73,1.31.16,2.65.17,4,.28a2.74,2.74,0,0,0,3.16-1.63.69.69,0,0,1,.59-.4,1,1,0,0,1,.77.25.82.82,0,0,0-.85.56c-.31.77-.75,1.48-1.07,2.24-.56,1.36-1.28,2.34-3,2.3a1.11,1.11,0,0,0-1.2,1.57,1.48,1.48,0,0,1-.52,1.57c-2.09,2.08-4,4.37-6.53,5.93a48,48,0,0,1-8.81,4c-.31.11-.73.17-.95-.08-.71-.82-1.51-.56-2.39-.43a7.89,7.89,0,0,1-3.1,0,2.58,2.58,0,0,0-1.46.09l1.56-6.49a1.58,1.58,0,0,1-.07-1.31c.67-2.34,1.21-4.71,1.81-7.07a3.33,3.33,0,0,1,.82-1.63A27.23,27.23,0,0,0,525.4,354Z" transform="translate(-465.46 -293.76)"/><path class="cls-140" d="M528.74,357.24a18.59,18.59,0,0,0,.55-2.29c.17-1.31.9-1.57,2.07-1.45,3.67.37,7.35.68,11,1,1.53.14,1.55.18,1.19,1.62-.05.21-.08.41-.13.62-.65,2.6-.67,2.57-3.4,2.19-3.25-.45-6.51-.8-9.78-1a2.2,2.2,0,0,0-1-.08C528.78,357.9,528.52,357.74,528.74,357.24Z" transform="translate(-465.46 -293.76)"/><path class="cls-141" d="M528.74,357.24c.2.89,1.14.23,1.52.74-.26.06-.57-.08-.84.2.56.94,1.61,1.32,2.33,2.07a23.32,23.32,0,0,1-3.82-.29,1.45,1.45,0,0,1-1.42-1.46A4.12,4.12,0,0,1,527,356C527.67,356.29,527.91,357.18,528.74,357.24Z" transform="translate(-465.46 -293.76)"/><path class="cls-142" d="M531.58,351.73c.88.07,2.27.08,2.15.54-.23,1-1.34.37-2.1.33l-.12,0c-.46-.19-1.41.18-1.35-.41C530.24,351.26,531.21,352,531.58,351.73Z" transform="translate(-465.46 -293.76)"/><path class="cls-143" d="M566.63,377.08a43,43,0,0,1-6.42-.37c-.22,0-.42-.12-.31-.39s.37-.31.62-.28c1.19.13,2.39.25,3.58.42C565,376.58,565.91,376.28,566.63,377.08Z" transform="translate(-465.46 -293.76)"/><path class="cls-144" d="M560,375.31a3.5,3.5,0,0,1,2.33-.26.28.28,0,0,1,.3.32.42.42,0,0,1-.44.35A5.43,5.43,0,0,1,560,375.31Z" transform="translate(-465.46 -293.76)"/><path class="cls-145" d="M569.89,364.89c-1.48.27-2.88-.25-4.3-.21a16.75,16.75,0,0,1-2.1-.2c-.21,0-.42-.12-.43-.36a.34.34,0,0,1,.42-.35,55.32,55.32,0,0,1,6.27.77S569.81,364.67,569.89,364.89Z" transform="translate(-465.46 -293.76)"/><path class="cls-146" d="M564.88,363.47c-.41-.35-1.48.09-1.45-.54s1-.09,1.52-.18c.28,0,.76-.09.71.42S565.23,363.44,564.88,363.47Z" transform="translate(-465.46 -293.76)"/><path class="cls-147" d="M520.77,360.72c-.71,3.37-1.58,6.7-2.56,10-.84-.53-1.33-1.47-2.23-1.93a45.55,45.55,0,0,1-6-7.3c.64-1,1.74-.79,2.68-.93a4.24,4.24,0,0,1,1.83.17,14.51,14.51,0,0,0,2.61.77A5.59,5.59,0,0,0,520.77,360.72Z" transform="translate(-465.46 -293.76)"/><path class="cls-148" d="M514.5,360.74c-1.47.43-3.06.18-4.51.76L507.51,358c.19-.57,0-1.45.64-1.64s1.3.38,1.79.91A25.08,25.08,0,0,0,514.5,360.74Z" transform="translate(-465.46 -293.76)"/><path class="cls-149" d="M528.26,322a2.45,2.45,0,0,1,1,2,12.59,12.59,0,0,0-5.26,4.55c-.33-.22-.11-.54-.22-.78C524.22,325,526,323.37,528.26,322Z" transform="translate(-465.46 -293.76)"/><path class="cls-150" d="M510.46,339.82c-.17,1.29-.36,2.59-1.5,3.47a3.63,3.63,0,0,1-.22-3.27l.76-.6Z" transform="translate(-465.46 -293.76)"/><path class="cls-151" d="M531.55,343.13c.42-.55.45-1-.17-1.39.46-.05.89,0,1-.13.73-1.22.89.51,1.44.27.11,0,0,.35-.08.33-.74-.14-.07,1.21-.88.84C532.42,342.87,532.13,343.09,531.55,343.13Z" transform="translate(-465.46 -293.76)"/><path class="cls-152" d="M538.15,342.45c-.81.15-.83.72-1.07,1.12a1,1,0,0,0-1.4.07C536.12,341.56,536.18,341.53,538.15,342.45Z" transform="translate(-465.46 -293.76)"/></svg>